<svg width="24" height="24" viewBox="0 0 24 24" fill="none" xmlns="http://www.w3.org/2000/svg">
<g id="7, Adjustable, Plumbing, Tools, Wrench">
<path id="Vector" d="M22.8435 17.9219L13.1719 9.20692L14.196 5.47256C14.2189 5.37968 14.2187 5.28265 14.1957 5.18983C14.1726 5.09701 14.1273 5.01117 14.0636 4.93971L9.25206 0.19689C9.18262 0.115464 9.09126 0.0555974 8.98878 0.0243785C8.88629 -0.00684038 8.77697 -0.00810046 8.67379 0.0207432L6.02525 0.734145C5.92777 0.754696 5.83775 0.801406 5.76491 0.869235C5.69207 0.937064 5.63919 1.02344 5.61193 1.11905C5.58468 1.21467 5.5841 1.31588 5.61026 1.4118C5.63643 1.50771 5.68835 1.59468 5.76041 1.66333L9.45512 5.35366L8.57227 8.59921L5.31899 9.47995L1.66399 5.78962C1.59505 5.71648 1.50722 5.66372 1.41017 5.63713C1.31312 5.61055 1.21061 5.61117 1.11389 5.63893C1.01717 5.66669 0.929995 5.72053 0.861948 5.7945C0.793902 5.86848 0.747615 5.95974 0.72818 6.05825L0.0174954 8.67407C-0.00574931 8.76692 -0.00583289 8.86404 0.0172529 8.95693C0.0403387 9.04982 0.0858851 9.13566 0.149917 9.20692L4.91728 13.9629C4.98193 14.037 5.06765 14.0898 5.16305 14.1142C5.25844 14.1386 5.35901 14.1334 5.45141 14.0995C5.85311 14.007 4.06975 14.4518 9.19467 13.1218L17.8377 22.81C18.1555 23.1688 18.5433 23.4591 18.9773 23.6634C19.4114 23.8676 19.8826 23.9814 20.3622 23.9979C20.8418 24.0144 21.3198 23.9332 21.7669 23.7592C22.214 23.5853 22.6209 23.3223 22.9627 22.9862C23.2986 22.6511 23.5627 22.2512 23.7388 21.811C23.9148 21.3708 23.9993 20.8995 23.9869 20.4257C23.9745 19.9519 23.8655 19.4855 23.6667 19.0551C23.4678 18.6247 23.1832 18.2391 22.8302 17.9219H22.8435ZM20.526 22.8981C20.1927 22.8905 19.8644 22.8155 19.5609 22.6777C19.2574 22.54 18.9851 22.3423 18.7603 22.0966L9.84799 12.1442C9.77977 12.0611 9.68867 11.9997 9.58592 11.9677C9.48317 11.9356 9.37326 11.9342 9.26973 11.9637C4.14481 13.342 5.92814 12.8444 5.52644 12.9853L1.20492 8.67407L1.56248 7.2957L4.81576 10.5413C4.88057 10.6151 4.96651 10.6674 5.06201 10.691C5.15752 10.7146 5.258 10.7085 5.34989 10.6734L9.22557 9.6517C9.32049 9.62318 9.40685 9.57166 9.47694 9.50173C9.54704 9.4318 9.59869 9.34564 9.62728 9.25096L10.6955 5.34044C10.7188 5.24759 10.7188 5.15047 10.6958 5.05758C10.6727 4.96469 10.6271 4.87886 10.5631 4.80759L7.30981 1.56205L8.69147 1.20975L13.013 5.521L11.9889 9.25096C11.9596 9.35455 11.9607 9.46435 11.992 9.56736C12.0233 9.67037 12.0835 9.76229 12.1655 9.83225L22.0886 18.763C22.3273 18.9784 22.5211 19.2386 22.659 19.5288C22.7968 19.8189 22.876 20.1333 22.892 20.454C22.9027 20.7708 22.8494 21.0865 22.7353 21.3823C22.6212 21.6782 22.4487 21.9481 22.228 22.1761C22.0073 22.4041 21.7429 22.5855 21.4505 22.7095C21.1581 22.8336 20.8437 22.8977 20.526 22.8981Z" fill="white"/>
<path id="Vector_2" d="M19.3648 19.3885C19.1721 19.5891 19.0427 19.8418 18.9928 20.1152C18.9428 20.3886 18.9745 20.6705 19.0838 20.9261C19.1931 21.1817 19.3753 21.3996 19.6078 21.5527C19.8402 21.7059 20.1126 21.7875 20.3911 21.7875C20.6697 21.7875 20.9421 21.7059 21.1745 21.5527C21.4069 21.3996 21.5891 21.1817 21.6984 20.9261C21.8078 20.6705 21.8394 20.3886 21.7895 20.1152C21.7395 19.8418 21.6101 19.5891 21.4174 19.3885C21.104 19.1331 19.8813 18.8556 19.3648 19.3885ZM20.3889 20.6744C20.3323 20.6737 20.2772 20.6557 20.2311 20.623C20.185 20.5902 20.15 20.5442 20.1308 20.491C20.1116 20.4379 20.1091 20.3801 20.1237 20.3256C20.1383 20.271 20.1692 20.2221 20.2123 20.1856C20.2358 20.1545 20.2661 20.1294 20.301 20.1121C20.3358 20.0948 20.3743 20.0857 20.4132 20.0857C20.4521 20.0857 20.4905 20.0948 20.5254 20.1121C20.5602 20.1294 20.5906 20.1545 20.614 20.1856C20.6413 20.231 20.6572 20.2824 20.6601 20.3353C20.663 20.3882 20.6529 20.4411 20.6307 20.4892C20.6085 20.5374 20.5749 20.5794 20.5328 20.6117C20.4907 20.6439 20.4413 20.6654 20.3889 20.6744Z" fill="white"/>
<path id="Vector_3" d="M17.8949 15.9182L14.2885 13.1218C14.1763 13.0406 14.0393 13.0006 13.901 13.0086C13.7626 13.0166 13.6312 13.0722 13.5292 13.1658L13.1275 13.5622C13.0261 13.6598 12.9652 13.7919 12.957 13.9323C12.9488 14.0726 12.9939 14.2109 13.0834 14.3196L15.8908 17.9219C15.9393 17.9866 16.0015 18.0399 16.0729 18.078C16.1444 18.1161 16.2233 18.138 16.3042 18.1422C16.3851 18.1464 16.466 18.1328 16.541 18.1023C16.616 18.0719 16.6834 18.0253 16.7384 17.9659L17.939 16.7637C17.9993 16.7093 18.0466 16.6422 18.0776 16.5672C18.1086 16.4923 18.1225 16.4114 18.1183 16.3305C18.1141 16.2495 18.0918 16.1705 18.0532 16.0992C18.0146 16.0279 17.9605 15.966 17.8949 15.9182ZM16.3808 16.7196L15.3567 15.3985L16.681 16.4202L16.3808 16.7196Z" fill="white"/>
<path id="Vector_4" d="M19.3651 3.8298L18.5661 3.02832L17.7627 3.8298L18.5661 4.63128L19.3651 3.8298Z" fill="white"/>
<path id="Vector_5" d="M23.9998 13.4741L23.1964 12.677L22.3975 13.4741L23.1964 14.2756L23.9998 13.4741Z" fill="white"/>
<path id="Vector_6" d="M0.163086 16.4072L0.966479 17.2087L1.76545 16.4072L0.966479 15.6101L0.163086 16.4072Z" fill="white"/>
<path id="Vector_7" d="M8.67383 21.4317L9.4728 22.2332L10.2762 21.4317L9.4728 20.5862L8.67383 21.4317Z" fill="white"/>
<path id="Vector_8" d="M17.5817 7.96499C17.6607 7.88616 17.7145 7.78572 17.7364 7.67637C17.7582 7.56703 17.747 7.45369 17.7042 7.35068C17.6615 7.24768 17.589 7.15964 17.4961 7.09769C17.4032 7.03575 17.294 7.00269 17.1822 7.00269C17.0705 7.00269 16.9612 7.03575 16.8683 7.09769C16.7754 7.15964 16.7029 7.24768 16.6602 7.35068C16.6174 7.45369 16.6062 7.56703 16.6281 7.67637C16.6499 7.78572 16.7037 7.88616 16.7827 7.96499C16.8349 8.01785 16.8971 8.05982 16.9656 8.08848C17.0342 8.11713 17.1079 8.13189 17.1822 8.13189C17.2566 8.13189 17.3302 8.11713 17.3987 8.08848C17.4673 8.05982 17.5295 8.01785 17.5817 7.96499Z" fill="white"/>
<path id="Vector_9" d="M15.3129 1.7427C15.3929 1.66336 15.4473 1.56215 15.4695 1.45188C15.4917 1.34161 15.4806 1.22724 15.4376 1.12328C15.3946 1.01932 15.3216 0.930442 15.2279 0.867901C15.1342 0.80536 15.024 0.771973 14.9112 0.771973C14.7985 0.771973 14.6883 0.80536 14.5946 0.867901C14.5009 0.930442 14.4279 1.01932 14.3849 1.12328C14.3419 1.22724 14.3307 1.34161 14.3529 1.45188C14.3751 1.56215 14.4296 1.66336 14.5096 1.7427C14.6163 1.84865 14.7607 1.90814 14.9112 1.90814C15.0618 1.90814 15.2062 1.84865 15.3129 1.7427Z" fill="white"/>
<path id="Vector_10" d="M5.42066 16.8078C5.34076 16.8871 5.28627 16.9883 5.26408 17.0986C5.24188 17.2089 5.25298 17.3232 5.296 17.4272C5.33902 17.5311 5.41202 17.62 5.50572 17.6826C5.59942 17.7451 5.70964 17.7785 5.82237 17.7785C5.93511 17.7785 6.0453 17.7451 6.139 17.6826C6.2327 17.62 6.3057 17.5311 6.34872 17.4272C6.39174 17.3232 6.40284 17.2089 6.38065 17.0986C6.35845 16.9883 6.30396 16.8871 6.22406 16.8078C6.11735 16.7018 5.97293 16.6423 5.82237 16.6423C5.67182 16.6423 5.52738 16.7018 5.42066 16.8078Z" fill="white"/>
</g>
</svg>
