<svg width="24" height="24" viewBox="0 0 24 24" fill="none" xmlns="http://www.w3.org/2000/svg">
<g id="48, Filter, Filtration, Purification, Water">
<path id="Vector" d="M23.5487 1.04956H7.3501C7.20967 1.05162 7.0755 1.10786 6.97581 1.20647C6.87612 1.30507 6.81868 1.43837 6.81555 1.57832V5.21101C6.81868 5.35096 6.87612 5.48426 6.97581 5.58286C7.0755 5.68147 7.20967 5.73772 7.3501 5.73977H7.8806V17.9618C7.87682 18.3372 7.94816 18.7097 8.09045 19.0573C8.23274 19.405 8.44313 19.7209 8.70932 19.9866C8.9755 20.2523 9.29214 20.4624 9.64075 20.6047C9.98936 20.7471 10.3629 20.8187 10.7396 20.8155C11.1982 20.8196 11.6508 20.7113 12.0576 20.5002C12.4643 20.289 12.8128 19.9815 13.0722 19.6046C13.3366 19.9809 13.6881 20.2883 14.097 20.5004C14.5059 20.7126 14.9601 20.8234 15.421 20.8234C15.882 20.8234 16.3362 20.7126 16.745 20.5004C17.1539 20.2883 17.5054 19.9809 17.7698 19.6046C18.0154 19.9383 18.3274 20.218 18.6862 20.4263C19.045 20.6346 19.443 20.7671 19.8554 20.8155V22.8901H4.74616V22.3614H6.82768C6.96812 22.3593 7.10228 22.3031 7.20197 22.2045C7.30166 22.1058 7.35911 21.9726 7.36224 21.8326V19.2251C7.35911 19.0852 7.30166 18.9519 7.20197 18.8533C7.10228 18.7547 6.96812 18.6984 6.82768 18.6964H5.80719V7.03947C5.82167 6.65595 5.75838 6.27347 5.62112 5.9149C5.48386 5.55633 5.27544 5.22904 5.00834 4.95261C4.74123 4.67618 4.42093 4.45629 4.06659 4.30609C3.71226 4.1559 3.33117 4.07848 2.94612 4.07848C2.56107 4.07848 2.17996 4.1559 1.82562 4.30609C1.47129 4.45629 1.15098 4.67618 0.883881 4.95261C0.616778 5.22904 0.408356 5.55633 0.271096 5.9149C0.133836 6.27347 0.0705726 6.65595 0.0850513 7.03947V8.87196C0.0871419 9.01154 0.143707 9.14483 0.242746 9.24354C0.341785 9.34226 0.475506 9.39864 0.615553 9.40072H2.1706C2.31065 9.39864 2.44437 9.34226 2.54341 9.24354C2.64245 9.14483 2.69901 9.01154 2.7011 8.87196V7.03947C2.70484 6.97607 2.73153 6.91617 2.77622 6.87089C2.8209 6.82561 2.88055 6.79803 2.94409 6.79325C2.97684 6.79212 3.00946 6.79772 3.03995 6.8097C3.07043 6.82167 3.0981 6.83977 3.12127 6.86286C3.14443 6.88595 3.16259 6.91355 3.17461 6.94393C3.18662 6.97431 3.19225 7.00683 3.19112 7.03947V18.7448H2.12606V16.6661C2.11443 16.5333 2.0533 16.4097 1.95472 16.3197C1.85614 16.2296 1.72726 16.1796 1.59353 16.1796C1.45981 16.1796 1.33095 16.2296 1.23237 16.3197C1.13378 16.4097 1.07263 16.5333 1.061 16.6661V18.7448H0.530501C0.390455 18.7469 0.256734 18.8033 0.157695 18.902C0.0586557 19.0007 0.0020906 19.134 0 19.2736V21.881C0.0020906 22.0206 0.0586557 22.1539 0.157695 22.2526C0.256734 22.3513 0.390455 22.4077 0.530501 22.4098H3.63657V23.4714C3.63966 23.6106 3.69655 23.7433 3.79537 23.8418C3.8942 23.9403 4.02734 23.997 4.16707 24.0001H20.313C20.453 23.998 20.5868 23.9417 20.6858 23.8429C20.7848 23.7442 20.8414 23.6109 20.8435 23.4714V20.7388C21.4475 20.5689 21.9789 20.2059 22.3557 19.7056C22.7325 19.2053 22.934 18.5954 22.929 17.9698V5.73574H23.4595C23.6 5.73368 23.7341 5.67743 23.8338 5.57882C23.9335 5.48022 23.991 5.34693 23.9941 5.20698V1.57428C24.0046 1.50981 24.001 1.44382 23.9835 1.38086C23.966 1.31791 23.935 1.25948 23.8927 1.20961C23.8503 1.15974 23.7977 1.11961 23.7383 1.09198C23.6789 1.06435 23.6142 1.04988 23.5487 1.04956ZM2.93599 5.73574C2.76361 5.73357 2.59255 5.76581 2.43287 5.83056C2.27319 5.89531 2.12813 5.99126 2.00623 6.11276C1.88433 6.23425 1.78806 6.37884 1.7231 6.53799C1.65813 6.69715 1.62579 6.86766 1.62796 7.03947V8.3432H1.09746V7.03947C1.11966 6.56781 1.32326 6.1228 1.666 5.79684C2.00874 5.47088 2.46428 5.28902 2.93801 5.28902C3.41175 5.28902 3.86729 5.47088 4.21003 5.79684C4.55277 6.1228 4.75636 6.56781 4.77857 7.03947V18.7448H4.24401V7.03947C4.24189 6.69435 4.10339 6.36397 3.85855 6.11993C3.61371 5.87589 3.28224 5.73785 2.93599 5.73574ZM1.09746 19.7499H6.33769V21.324H1.10554L1.09746 19.7499ZM11.0353 4.71858H10.5088V4.18578H11.0353V4.71858ZM12.5903 5.73574V6.75289H8.94566V5.73574H12.5903ZM17.2879 5.73574V6.75289H13.6432V5.73574H17.2879ZM15.6964 4.71858H15.1659V4.18578H15.7005L15.6964 4.71858ZM10.7518 19.7499C10.51 19.7509 10.2705 19.7043 10.047 19.6125C9.82341 19.5208 9.62031 19.3859 9.44937 19.2155C9.27843 19.0451 9.14304 18.8427 9.05103 18.6199C8.95901 18.3971 8.91218 18.1583 8.91326 17.9174V7.82655H12.5579V17.9698C12.5618 18.2064 12.5177 18.4413 12.428 18.6603C12.3384 18.8794 12.2052 19.0781 12.0364 19.2444C11.8676 19.4108 11.6668 19.5413 11.446 19.6282C11.2252 19.715 10.989 19.7564 10.7518 19.7499ZM15.4534 19.7499C15.2117 19.7509 14.9721 19.7043 14.7486 19.6125C14.525 19.5208 14.3219 19.3859 14.151 19.2155C13.9801 19.0451 13.8447 18.8427 13.7527 18.6199C13.6606 18.3971 13.6138 18.1583 13.6149 17.9174V7.82655H17.2596V17.9698C17.2623 18.2061 17.2174 18.4404 17.1273 18.659C17.0373 18.8775 16.904 19.0758 16.7355 19.2419C16.5669 19.408 16.3665 19.5386 16.1463 19.6258C15.926 19.7131 15.6904 19.7553 15.4534 19.7499ZM20.1551 19.7499C19.9133 19.7509 19.6737 19.7043 19.4502 19.6125C19.2267 19.5208 19.0236 19.3859 18.8526 19.2155C18.6817 19.0451 18.5463 18.8427 18.4543 18.6199C18.3623 18.3971 18.3154 18.1583 18.3165 17.9174V7.82655H21.9612V17.9698C21.9538 18.4431 21.7605 18.8946 21.4228 19.2274C21.0851 19.5602 20.6299 19.7478 20.1551 19.7499ZM21.9693 6.79325H18.3246V5.7761H21.9693V6.79325ZM20.4142 4.71858H19.8837V4.18578H20.4142V4.71858ZM23.0303 4.71858H21.4793V3.65702C21.4762 3.51776 21.4193 3.38505 21.3205 3.28655C21.2216 3.18805 21.0885 3.13135 20.9488 3.12827H19.3775C19.2375 3.13035 19.1037 3.18673 19.0047 3.28544C18.9057 3.38416 18.8491 3.51744 18.847 3.65702V4.71858H16.7615V3.65702C16.7594 3.51744 16.7028 3.38416 16.6038 3.28544C16.5047 3.18673 16.371 3.13035 16.231 3.12827H14.6799C14.5402 3.13135 14.4071 3.18805 14.3082 3.28655C14.2094 3.38505 14.1525 3.51776 14.1494 3.65702V4.71858H12.0639V3.65702C12.0618 3.51744 12.0052 3.38416 11.9062 3.28544C11.8071 3.18673 11.6734 3.13035 11.5334 3.12827H9.98237C9.84193 3.13032 9.70776 3.18656 9.60808 3.28517C9.50839 3.38378 9.45094 3.51707 9.44781 3.65702V4.71858H7.89679V2.11111H23.0182V4.71858H23.0303Z" fill="white"/>
<path id="Vector_2" d="M20.9323 10.9505H19.3772C19.2365 10.9505 19.1016 11.0062 19.0021 11.1053C18.9026 11.2045 18.8467 11.339 18.8467 11.4792C18.8467 11.6195 18.9026 11.7539 19.0021 11.8531C19.1016 11.9523 19.2365 12.008 19.3772 12.008H20.9323C21.0723 12.0059 21.206 11.9495 21.3051 11.8508C21.4041 11.7521 21.4607 11.6188 21.4628 11.4792C21.465 11.4092 21.4528 11.3394 21.427 11.2742C21.4011 11.2091 21.3621 11.1499 21.3124 11.1003C21.2627 11.0508 21.2033 11.0119 21.1379 10.9861C21.0725 10.9604 21.0025 10.9482 20.9323 10.9505Z" fill="white"/>
<path id="Vector_3" d="M20.9328 12.4965H19.3777C19.2445 12.5081 19.1205 12.569 19.0301 12.6673C18.9398 12.7655 18.8896 12.894 18.8896 13.0273C18.8896 13.1605 18.9398 13.289 19.0301 13.3873C19.1205 13.4855 19.2445 13.5464 19.3777 13.558H20.9328C21.0725 13.555 21.2057 13.4983 21.3045 13.3998C21.4033 13.3013 21.4602 13.1685 21.4633 13.0293C21.4655 12.9591 21.4533 12.8891 21.4275 12.8237C21.4017 12.7584 21.3628 12.6989 21.3131 12.649C21.2634 12.5992 21.2041 12.5599 21.1387 12.5337C21.0733 12.5075 21.0033 12.4948 20.9328 12.4965Z" fill="white"/>
<path id="Vector_4" d="M20.3979 14.0586H19.8674C19.7267 14.0586 19.5918 14.1143 19.4923 14.2135C19.3928 14.3126 19.3369 14.4471 19.3369 14.5874C19.3369 14.7276 19.3928 14.8621 19.4923 14.9612C19.5918 15.0604 19.7267 15.1161 19.8674 15.1161H20.3979C20.5386 15.1161 20.6736 15.0604 20.773 14.9612C20.8725 14.8621 20.9284 14.7276 20.9284 14.5874C20.9284 14.4471 20.8725 14.3126 20.773 14.2135C20.6736 14.1143 20.5386 14.0586 20.3979 14.0586Z" fill="white"/>
<path id="Vector_5" d="M16.2309 10.9506H14.6799C14.5392 10.9506 14.4043 11.0063 14.3048 11.1055C14.2053 11.2046 14.1494 11.3391 14.1494 11.4794C14.1494 11.6196 14.2053 11.7541 14.3048 11.8533C14.4043 11.9524 14.5392 12.0081 14.6799 12.0081H16.235C16.375 12.006 16.5088 11.9497 16.6078 11.8509C16.7068 11.7522 16.7634 11.6189 16.7655 11.4794C16.7678 11.409 16.7555 11.3389 16.7294 11.2734C16.7032 11.208 16.6639 11.1486 16.6137 11.099C16.5636 11.0493 16.5037 11.0106 16.4378 10.985C16.372 10.9595 16.3015 10.9478 16.2309 10.9506Z" fill="white"/>
<path id="Vector_6" d="M16.231 12.4965H14.68C14.5467 12.5081 14.4227 12.569 14.3324 12.6673C14.242 12.7656 14.1919 12.894 14.1919 13.0273C14.1919 13.1606 14.242 13.289 14.3324 13.3873C14.4227 13.4855 14.5467 13.5465 14.68 13.5581H16.235C16.3751 13.556 16.5088 13.4996 16.6078 13.4009C16.7069 13.3022 16.7634 13.1689 16.7655 13.0293C16.7684 12.9586 16.7565 12.888 16.7307 12.8221C16.7048 12.7562 16.6655 12.6963 16.6153 12.6462C16.5651 12.5962 16.505 12.557 16.4389 12.5313C16.3727 12.5055 16.3019 12.4937 16.231 12.4965Z" fill="white"/>
<path id="Vector_7" d="M15.7008 14.0586H15.1662C15.0255 14.0586 14.8906 14.1143 14.7911 14.2135C14.6916 14.3126 14.6357 14.4471 14.6357 14.5874C14.6357 14.7276 14.6916 14.8621 14.7911 14.9612C14.8906 15.0604 15.0255 15.1161 15.1662 15.1161H15.7008C15.8415 15.1161 15.9764 15.0604 16.0759 14.9612C16.1754 14.8621 16.2313 14.7276 16.2313 14.5874C16.2313 14.4471 16.1754 14.3126 16.0759 14.2135C15.9764 14.1143 15.8415 14.0586 15.7008 14.0586Z" fill="white"/>
<path id="Vector_8" d="M11.5292 10.9505H9.97826C9.83756 10.9505 9.70261 11.0062 9.60313 11.1053C9.50364 11.2045 9.44775 11.339 9.44775 11.4792C9.44775 11.6195 9.50364 11.7539 9.60313 11.8531C9.70261 11.9523 9.83756 12.008 9.97826 12.008H11.5292C11.6693 12.0059 11.803 11.9495 11.9021 11.8508C12.0011 11.7521 12.0577 11.6188 12.0598 11.4792C12.062 11.4092 12.0498 11.3394 12.024 11.2742C11.9981 11.2091 11.9591 11.1499 11.9094 11.1003C11.8597 11.0508 11.8003 11.0119 11.7349 10.9861C11.6695 10.9604 11.5995 10.9482 11.5292 10.9505Z" fill="white"/>
<path id="Vector_9" d="M11.5295 12.4964H9.97851C9.90467 12.49 9.83029 12.4989 9.76011 12.5227C9.68993 12.5464 9.62549 12.5845 9.57085 12.6344C9.51621 12.6843 9.47256 12.745 9.44272 12.8126C9.41287 12.8802 9.39746 12.9533 9.39746 13.0272C9.39746 13.1011 9.41287 13.1741 9.44272 13.2417C9.47256 13.3094 9.51621 13.37 9.57085 13.42C9.62549 13.4699 9.68993 13.5079 9.76011 13.5317C9.83029 13.5554 9.90467 13.5644 9.97851 13.558H11.5295C11.6695 13.5559 11.8033 13.4995 11.9023 13.4008C12.0014 13.3021 12.0579 13.1688 12.06 13.0292C12.0628 12.9588 12.0511 12.8886 12.0255 12.823C11.9999 12.7573 11.9609 12.6976 11.9112 12.6477C11.8614 12.5977 11.8018 12.5584 11.7361 12.5324C11.6705 12.5064 11.6001 12.4941 11.5295 12.4964Z" fill="white"/>
<path id="Vector_10" d="M11.0355 14.0586H10.509C10.3683 14.0586 10.2334 14.1143 10.1339 14.2135C10.0344 14.3126 9.97852 14.4471 9.97852 14.5874C9.97852 14.7276 10.0344 14.8621 10.1339 14.9612C10.2334 15.0604 10.3683 15.1161 10.509 15.1161H11.0355C11.1762 15.1161 11.3111 15.0604 11.4106 14.9612C11.5101 14.8621 11.566 14.7276 11.566 14.5874C11.566 14.4471 11.5101 14.3126 11.4106 14.2135C11.3111 14.1143 11.1762 14.0586 11.0355 14.0586Z" fill="white"/>
<path id="Vector_11" d="M0.574935 11.9679C0.714982 11.9658 0.848703 11.9094 0.947742 11.8107C1.04678 11.712 1.10335 11.5787 1.10544 11.4391V10.9103C1.10544 10.7701 1.04955 10.6356 0.950065 10.5365C0.850577 10.4373 0.715633 10.3816 0.574935 10.3816C0.434237 10.3816 0.299318 10.4373 0.19983 10.5365C0.100341 10.6356 0.0444336 10.7701 0.0444336 10.9103V11.4391C0.0530457 11.5765 0.111711 11.7061 0.209395 11.8035C0.307079 11.9008 0.437058 11.9593 0.574935 11.9679Z" fill="white"/>
<path id="Vector_12" d="M2.66083 12.4964V11.9677C2.6492 11.8349 2.58805 11.7113 2.48947 11.6212C2.39088 11.5312 2.26203 11.4812 2.1283 11.4812C1.99458 11.4812 1.8657 11.5312 1.76711 11.6212C1.66853 11.7113 1.6074 11.8349 1.59577 11.9677V12.4964C1.58933 12.57 1.59831 12.6441 1.62215 12.7141C1.64598 12.784 1.68414 12.8483 1.73421 12.9027C1.78429 12.9572 1.8452 13.0007 1.91304 13.0304C1.98088 13.0602 2.05419 13.0756 2.1283 13.0756C2.20242 13.0756 2.27572 13.0602 2.34356 13.0304C2.4114 13.0007 2.47229 12.9572 2.52237 12.9027C2.57244 12.8483 2.61062 12.784 2.63446 12.7141C2.65829 12.6441 2.66728 12.57 2.66083 12.4964Z" fill="white"/>
<path id="Vector_13" d="M4.2522 0.818386L3.50195 1.56616L4.2522 2.31394L5.00244 1.56616L4.2522 0.818386Z" fill="white"/>
<path id="Vector_14" d="M1.47422 0.88799C1.52345 0.840225 1.56256 0.783116 1.58928 0.72003C1.616 0.656944 1.62977 0.589165 1.62977 0.520689C1.62977 0.452214 1.616 0.384429 1.58928 0.321343C1.56256 0.258257 1.52345 0.201148 1.47422 0.153382C1.40126 0.0803158 1.30819 0.0304781 1.20678 0.0101868C1.10538 -0.0101045 1.0002 6.19684e-05 0.904594 0.0393987C0.808993 0.0787354 0.72727 0.145471 0.669758 0.231151C0.612246 0.316831 0.581543 0.417602 0.581543 0.520689C0.581543 0.623777 0.612246 0.724542 0.669758 0.810221C0.72727 0.895901 0.808993 0.962637 0.904594 1.00197C1.0002 1.04131 1.10538 1.05148 1.20678 1.03119C1.30819 1.01089 1.40126 0.961057 1.47422 0.88799Z" fill="white"/>
<path id="Vector_15" d="M0.615478 2.59938C0.720402 2.59938 0.822963 2.63039 0.910204 2.68849C0.997445 2.7466 1.06544 2.82917 1.10559 2.92579C1.14574 3.02241 1.15624 3.12873 1.13577 3.23129C1.1153 3.33386 1.06478 3.42808 0.990584 3.50203C0.916392 3.57598 0.821876 3.62634 0.718968 3.64674C0.616061 3.66714 0.509389 3.65667 0.412453 3.61665C0.315516 3.57663 0.23267 3.50886 0.174378 3.4219C0.116086 3.33495 0.0849766 3.23272 0.0849766 3.12814C0.0844375 3.05855 0.0977827 2.98955 0.124252 2.92516C0.150721 2.86076 0.189767 2.80226 0.239137 2.75305C0.288506 2.70385 0.347203 2.66492 0.41181 2.63853C0.476417 2.61215 0.545661 2.59884 0.615478 2.59938Z" fill="white"/>
</g>
</svg>
