<svg width="36" height="36" viewBox="0 0 36 36" fill="none" xmlns="http://www.w3.org/2000/svg">
<g id="44, Construction, Drain, Industrial, Pipe">
<path id="Vector" d="M35.1942 7.37519H31.9201C31.7002 7.37846 31.4903 7.4672 31.3348 7.62256C31.1793 7.77792 31.0905 7.98768 31.0872 8.20737V10.2593H22.7462C22.1721 10.2542 21.6027 10.3634 21.0713 10.5806C20.5399 10.7978 20.057 11.1186 19.6511 11.5243C19.2451 11.93 18.924 12.4124 18.7066 12.9434C18.4893 13.4745 18.3799 14.0434 18.385 14.6171V15.5764H17.1644C16.944 15.5813 16.734 15.6714 16.5787 15.8278C16.4234 15.9841 16.3348 16.1946 16.3316 16.4149V19.6801C16.3348 19.9004 16.4234 20.1109 16.5787 20.2672C16.734 20.4236 16.944 20.5137 17.1644 20.5187H18.385V26.9919C18.385 28.0803 17.9523 29.1241 17.1821 29.8937C16.4119 30.6633 15.3673 31.0957 14.2781 31.0957C13.1889 31.0957 12.1443 30.6633 11.3741 29.8937C10.6039 29.1241 10.1712 28.0803 10.1712 26.9919V4.9358H12.2246C12.444 4.93095 12.653 4.84171 12.8082 4.68668C12.9633 4.53166 13.0526 4.3228 13.0575 4.10362V0.863801C13.0542 0.644113 12.9654 0.434348 12.8099 0.278988C12.6544 0.123628 12.4445 0.0348957 12.2246 0.0316162H3.24153C3.02107 0.0348498 2.81044 0.123367 2.65394 0.278561C2.49744 0.433756 2.40726 0.643538 2.40234 0.863801V4.13537C2.40726 4.35563 2.49744 4.56542 2.65394 4.72061C2.81044 4.87581 3.02107 4.96432 3.24153 4.96756H5.28228V27.0237C5.28228 29.4043 6.22871 31.6874 7.91337 33.3708C9.59802 35.0542 11.8829 35.9999 14.2654 35.9999C16.6478 35.9999 18.9327 35.0542 20.6174 33.3708C22.3021 31.6874 23.2485 29.4043 23.2485 27.0237V20.4551H24.4691C24.6895 20.4502 24.8995 20.3601 25.0548 20.2037C25.2101 20.0473 25.2987 19.8369 25.3019 19.6166V16.3514C25.2987 16.1311 25.2101 15.9206 25.0548 15.7642C24.8995 15.6078 24.6895 15.5177 24.4691 15.5128H23.2485C23.2729 15.3974 23.3387 15.2949 23.4336 15.2247C23.5285 15.1544 23.6458 15.1214 23.7634 15.1317H31.011V17.1836C31.0159 17.4049 31.107 17.6156 31.2648 17.771C31.4227 17.9264 31.6349 18.0141 31.8565 18.0157H35.1624C35.3822 18.0125 35.5922 17.9237 35.7476 17.7684C35.9031 17.613 35.9919 17.4032 35.9952 17.1836V8.20737C36.0065 8.09803 35.9938 7.98754 35.958 7.8836C35.9223 7.77965 35.8642 7.68476 35.7879 7.60554C35.7117 7.52631 35.619 7.46466 35.5165 7.42487C35.4139 7.38509 35.3039 7.36814 35.1942 7.37519ZM4.07436 1.65787H11.4554V3.26507H4.07436V1.65787ZM21.6528 26.9856C21.6817 27.9677 21.5131 28.9456 21.1569 29.8615C20.8007 30.7773 20.2642 31.6124 19.5792 32.3173C18.8942 33.0222 18.0746 33.5826 17.169 33.9652C16.2633 34.3479 15.29 34.5451 14.3067 34.5451C13.3234 34.5451 12.3501 34.3479 11.4444 33.9652C10.5388 33.5826 9.71915 33.0222 9.03415 32.3173C8.34915 31.6124 7.81268 30.7773 7.45652 29.8615C7.10035 28.9456 6.93174 27.9677 6.96066 26.9856V4.9358H8.56273V26.9919C8.56273 28.5082 9.16556 29.9625 10.2386 31.0347C11.3116 32.1069 12.767 32.7092 14.2845 32.7092C15.8019 32.7092 17.2573 32.1069 18.3303 31.0347C19.4033 29.9625 20.0062 28.5082 20.0062 26.9919V20.4551H21.6082L21.6718 26.9919L21.6528 26.9856ZM23.7189 18.8479H17.9972V17.2471H23.7189V18.8479ZM23.8524 13.5245C23.2988 13.516 22.7643 13.7272 22.3663 14.1118C21.9682 14.4965 21.7391 15.0231 21.729 15.5764H20.127V14.6171C20.132 13.8874 20.4243 13.1891 20.9406 12.6731C21.457 12.1572 22.1559 11.8651 22.8861 11.8601H31.2271V13.5245H23.8524ZM34.3741 16.4149H32.772V9.03955H34.3741V16.4149Z" fill="#5452E8"/>
<path id="Vector_2" d="M0.927734 8.52506L2.0848 9.68123L3.24186 8.52506L2.0848 7.37524L0.927734 8.52506Z" fill="#5452E8"/>
<path id="Vector_3" d="M23.7062 6.09215L22.5555 4.93597L21.3984 6.09215L22.5555 7.24196L23.7062 6.09215Z" fill="#5452E8"/>
<path id="Vector_4" d="M26.3398 24.8766L27.4969 26.0327L28.654 24.8766L27.4969 23.7204L26.3398 24.8766Z" fill="#5452E8"/>
<path id="Vector_5" d="M31.9207 0C32.0854 0 32.2465 0.0488001 32.3834 0.140242C32.5204 0.231684 32.6271 0.361661 32.6902 0.513723C32.7532 0.665785 32.7697 0.833099 32.7375 0.994528C32.7054 1.15596 32.6261 1.30424 32.5096 1.42062C32.3932 1.53701 32.2448 1.61627 32.0832 1.64838C31.9217 1.68049 31.7542 1.664 31.602 1.60102C31.4498 1.53803 31.3198 1.43137 31.2282 1.29451C31.1367 1.15766 31.0879 0.996776 31.0879 0.832185C31.0879 0.611476 31.1756 0.399792 31.3318 0.243727C31.488 0.0876619 31.6998 0 31.9207 0Z" fill="#5452E8"/>
<path id="Vector_6" d="M15.5638 8.20748C15.7282 8.20874 15.8886 8.25861 16.0247 8.35081C16.1609 8.44301 16.2666 8.57342 16.3287 8.72559C16.3907 8.87776 16.4063 9.04488 16.3735 9.20589C16.3406 9.3669 16.2608 9.51457 16.1441 9.63032C16.0274 9.74607 15.879 9.82471 15.7176 9.85631C15.5562 9.8879 15.3891 9.87105 15.2373 9.80788C15.0855 9.74471 14.9558 9.63805 14.8645 9.50134C14.7733 9.36463 14.7246 9.20399 14.7246 9.03967C14.7246 8.92985 14.7463 8.82111 14.7886 8.71973C14.8308 8.61835 14.8928 8.52632 14.9708 8.44896C15.0488 8.3716 15.1414 8.31044 15.2431 8.269C15.3449 8.22755 15.4539 8.20664 15.5638 8.20748Z" fill="#5452E8"/>
<path id="Vector_7" d="M0.832827 22.1195C0.997545 22.1195 1.15855 22.1683 1.29551 22.2598C1.43247 22.3512 1.53923 22.4812 1.60227 22.6332C1.6653 22.7853 1.68178 22.9526 1.64965 23.1141C1.61751 23.2755 1.53819 23.4238 1.42172 23.5401C1.30525 23.6565 1.15685 23.7358 0.995295 23.7679C0.833742 23.8 0.666299 23.7835 0.514119 23.7205C0.36194 23.6576 0.231863 23.5509 0.14035 23.414C0.0488378 23.2772 0 23.1163 0 22.9517C0 22.731 0.0877489 22.5193 0.243934 22.3633C0.40012 22.2072 0.611947 22.1195 0.832827 22.1195Z" fill="#5452E8"/>
<path id="Vector_8" d="M31.0887 31.0959C31.2534 31.0959 31.4144 31.1447 31.5514 31.2362C31.6883 31.3276 31.7951 31.4576 31.8581 31.6097C31.9212 31.7617 31.9376 31.9291 31.9055 32.0905C31.8734 32.2519 31.7941 32.4002 31.6776 32.5166C31.5611 32.633 31.4127 32.7122 31.2512 32.7443C31.0896 32.7764 30.9222 32.76 30.77 32.697C30.6178 32.634 30.4877 32.5273 30.3962 32.3905C30.3047 32.2536 30.2559 32.0927 30.2559 31.9281C30.2559 31.7074 30.3436 31.4958 30.4998 31.3397C30.656 31.1836 30.8678 31.0959 31.0887 31.0959Z" fill="#5452E8"/>
</g>
</svg>
