<svg width="24" height="24" viewBox="0 0 24 24" fill="none" xmlns="http://www.w3.org/2000/svg">
<g id="44, Construction, Drain, Industrial, Pipe">
<path id="Vector" d="M23.4633 4.91671H21.2805C21.134 4.91889 20.994 4.97805 20.8904 5.08162C20.7867 5.1852 20.7275 5.32504 20.7253 5.4715V6.83942H15.1647C14.7819 6.83603 14.4023 6.90886 14.048 7.05366C13.6937 7.19846 13.3719 7.41233 13.1012 7.68279C12.8305 7.95324 12.6165 8.27486 12.4716 8.62887C12.3267 8.98289 12.2538 9.36219 12.2572 9.74466V10.3842H11.4434C11.2965 10.3874 11.1565 10.4475 11.053 10.5518C10.9494 10.656 10.8904 10.7963 10.8882 10.9432V13.12C10.8904 13.2669 10.9494 13.4072 11.053 13.5114C11.1565 13.6157 11.2965 13.6757 11.4434 13.679H12.2572V17.9945C12.2572 18.7201 11.9687 19.416 11.4552 19.9291C10.9418 20.4421 10.2454 20.7304 9.51922 20.7304C8.79307 20.7304 8.09666 20.4421 7.5832 19.9291C7.06973 19.416 6.78127 18.7201 6.78127 17.9945V3.29045H8.15025C8.29648 3.28722 8.43583 3.22772 8.53926 3.12437C8.64269 3.02102 8.70223 2.88179 8.70547 2.73566V0.575786C8.70328 0.429328 8.64408 0.289484 8.54042 0.185911C8.43677 0.0823372 8.29682 0.0231824 8.15025 0.0209961H2.16151C2.01454 0.0231519 1.87412 0.0821631 1.76978 0.185626C1.66545 0.289089 1.60533 0.428944 1.60205 0.575786V2.75683C1.60533 2.90367 1.66545 3.04353 1.76978 3.14699C1.87412 3.25046 2.01454 3.30947 2.16151 3.31162H3.52201V18.0157C3.52201 19.6028 4.15296 21.1249 5.27607 22.2471C6.39917 23.3694 7.92243 23.9998 9.51074 23.9998C11.0991 23.9998 12.6223 23.3694 13.7454 22.2471C14.8685 21.1249 15.4995 19.6028 15.4995 18.0157V13.6367H16.3132C16.4602 13.6334 16.6001 13.5733 16.7037 13.4691C16.8072 13.3648 16.8663 13.2245 16.8684 13.0776V10.9008C16.8663 10.754 16.8072 10.6137 16.7037 10.5094C16.6001 10.4052 16.4602 10.3451 16.3132 10.3418H15.4995C15.5158 10.2648 15.5597 10.1965 15.6229 10.1497C15.6862 10.1029 15.7644 10.0808 15.8428 10.0877H20.6745V11.4556C20.6778 11.6032 20.7385 11.7437 20.8437 11.8472C20.949 11.9508 21.0904 12.0093 21.2381 12.0104H23.4421C23.5886 12.0082 23.7286 11.9491 23.8323 11.8455C23.9359 11.7419 23.9951 11.6021 23.9973 11.4556V5.4715C24.0048 5.3986 23.9964 5.32494 23.9725 5.25565C23.9487 5.18636 23.91 5.12309 23.8591 5.07028C23.8083 5.01746 23.7465 4.97636 23.6782 4.94983C23.6098 4.92331 23.5364 4.91201 23.4633 4.91671ZM2.71673 1.10517H7.6374V2.17663H2.71673V1.10517ZM14.4357 17.9903C14.4549 18.645 14.3425 19.297 14.1051 19.9076C13.8676 20.5181 13.51 21.0748 13.0533 21.5448C12.5967 22.0147 12.0503 22.3883 11.4465 22.6434C10.8427 22.8985 10.1938 23.03 9.53829 23.03C8.88276 23.03 8.23389 22.8985 7.63011 22.6434C7.02633 22.3883 6.47992 22.0147 6.02325 21.5448C5.56659 21.0748 5.20894 20.5181 4.9715 19.9076C4.73406 19.297 4.62165 18.645 4.64093 17.9903V3.29045H5.70898V17.9945C5.70898 19.0054 6.11086 19.9749 6.82622 20.6897C7.54157 21.4045 8.51179 21.8061 9.52346 21.8061C10.5351 21.8061 11.5053 21.4045 12.2207 20.6897C12.9361 19.9749 13.3379 19.0054 13.3379 17.9945V13.6367H14.406L14.4484 17.9945L14.4357 17.9903ZM15.8131 12.5652H11.9986V11.498H15.8131V12.5652ZM15.9021 9.01623C15.533 9.01056 15.1767 9.15139 14.9113 9.40781C14.646 9.66424 14.4932 10.0153 14.4865 10.3842H13.4185V9.74466C13.4218 9.25822 13.6167 8.79265 13.9609 8.44867C14.3051 8.1047 14.7711 7.90998 15.2579 7.90665H20.8186V9.01623H15.9021ZM22.9165 10.9432H21.8485V6.02629H22.9165V10.9432Z" fill="white"/>
<path id="Vector_2" d="M0.619141 5.68329L1.39052 6.45407L2.16189 5.68329L1.39052 4.91675L0.619141 5.68329Z" fill="white"/>
<path id="Vector_3" d="M15.8046 4.06131L15.0375 3.29053L14.2661 4.06131L15.0375 4.82785L15.8046 4.06131Z" fill="white"/>
<path id="Vector_4" d="M17.5596 16.5842L18.3309 17.355L19.1023 16.5842L18.3309 15.8135L17.5596 16.5842Z" fill="white"/>
<path id="Vector_5" d="M21.2803 0C21.3901 0 21.4975 0.0325334 21.5888 0.0934946C21.6801 0.154456 21.7513 0.241107 21.7933 0.342482C21.8353 0.443857 21.8463 0.5554 21.8249 0.663018C21.8034 0.770637 21.7506 0.869493 21.6729 0.947082C21.5953 1.02467 21.4963 1.07751 21.3886 1.09892C21.2809 1.12032 21.1693 1.10933 21.0678 1.06734C20.9664 1.02535 20.8797 0.954245 20.8187 0.86301C20.7577 0.771775 20.7251 0.664517 20.7251 0.55479C20.7251 0.40765 20.7836 0.266528 20.8877 0.162485C20.9918 0.0584412 21.1331 0 21.2803 0Z" fill="white"/>
<path id="Vector_6" d="M10.3754 5.4717C10.485 5.47253 10.5919 5.50578 10.6827 5.56725C10.7734 5.62871 10.8439 5.71565 10.8853 5.8171C10.9267 5.91854 10.9371 6.02996 10.9152 6.1373C10.8933 6.24464 10.8401 6.34309 10.7622 6.42025C10.6844 6.49742 10.5855 6.54984 10.4779 6.57091C10.3703 6.59198 10.2589 6.58074 10.1577 6.53863C10.0565 6.49651 9.97002 6.42541 9.9092 6.33427C9.84838 6.24313 9.81592 6.13603 9.81592 6.02649C9.81592 5.95327 9.83041 5.88078 9.85858 5.8132C9.88674 5.74561 9.92802 5.68425 9.98003 5.63268C10.032 5.58111 10.0937 5.54034 10.1616 5.5127C10.2295 5.48507 10.3021 5.47114 10.3754 5.4717Z" fill="white"/>
<path id="Vector_7" d="M0.555218 14.7463C0.66503 14.7463 0.77237 14.7789 0.863675 14.8398C0.95498 14.9008 1.02616 14.9874 1.06818 15.0888C1.1102 15.1902 1.12119 15.3018 1.09977 15.4094C1.07834 15.517 1.02546 15.6158 0.947813 15.6934C0.870164 15.771 0.771232 15.8239 0.66353 15.8453C0.555828 15.8667 0.444199 15.8557 0.342746 15.8137C0.241293 15.7717 0.154575 15.7006 0.0935668 15.6094C0.0325585 15.5181 0 15.4109 0 15.3011C0 15.154 0.0584992 15.0129 0.162623 14.9088C0.266747 14.8048 0.407965 14.7463 0.555218 14.7463Z" fill="white"/>
<path id="Vector_8" d="M20.7251 20.7307C20.835 20.7307 20.9423 20.7632 21.0336 20.8242C21.1249 20.8852 21.1961 20.9718 21.2381 21.0732C21.2801 21.1746 21.2911 21.2861 21.2697 21.3937C21.2483 21.5014 21.1954 21.6002 21.1177 21.6778C21.0401 21.7554 20.9412 21.8082 20.8335 21.8296C20.7258 21.851 20.6141 21.8401 20.5127 21.7981C20.4112 21.7561 20.3245 21.685 20.2635 21.5937C20.2025 21.5025 20.1699 21.3952 20.1699 21.2855C20.1699 21.1384 20.2284 20.9973 20.3325 20.8932C20.4367 20.7892 20.5779 20.7307 20.7251 20.7307Z" fill="white"/>
</g>
</svg>
