<svg width="24" height="24" viewBox="0 0 24 24" fill="none" xmlns="http://www.w3.org/2000/svg">
<g id="32, Mechanical, Plumber, Plumbing, System, Valve">
<path id="Vector" d="M23.4816 21.2799H22.4844V17.5597H23.4816C23.6191 17.5597 23.751 17.5026 23.8482 17.401C23.9454 17.2995 24 17.1618 24 17.0181C24 16.8745 23.9454 16.7368 23.8482 16.6352C23.751 16.5337 23.6191 16.4766 23.4816 16.4766H22.4844V15.4308C22.4824 15.2879 22.4271 15.1514 22.3303 15.0503C22.2335 14.9492 22.1029 14.8914 21.966 14.8893H19.3979C19.261 14.8914 19.1303 14.9492 19.0336 15.0503C18.9368 15.1514 18.8815 15.2879 18.8795 15.4308V15.9765H15.3181V12.2562H15.8364C15.9737 12.2541 16.1048 12.1965 16.2022 12.0955C16.2996 11.9945 16.3557 11.858 16.3588 11.7147V9.04432C16.3537 8.90245 16.2967 8.76802 16.1995 8.66879C16.1023 8.56956 15.9723 8.5131 15.8364 8.51108H14.3209V7.4694H16.6279C17.0903 7.44674 17.5265 7.2389 17.8461 6.88905C18.1657 6.5392 18.344 6.07421 18.344 5.59065C18.344 5.10709 18.1657 4.64211 17.8461 4.29226C17.5265 3.94241 17.0903 3.73458 16.6279 3.71191H7.42754C6.96514 3.73458 6.52886 3.94241 6.20929 4.29226C5.88973 4.64211 5.71144 5.10709 5.71144 5.59065C5.71144 6.07421 5.88973 6.5392 6.20929 6.88905C6.52886 7.2389 6.96514 7.44674 7.42754 7.4694H9.70289V8.51108H8.1873C8.05008 8.51318 7.91897 8.57079 7.82156 8.67178C7.72415 8.77277 7.66802 8.90926 7.66496 9.05259V11.7229C7.66802 11.8663 7.72415 12.0028 7.82156 12.1038C7.91897 12.2047 8.05008 12.2623 8.1873 12.2644H8.71361V15.9847H5.15219V15.4391C5.14913 15.2958 5.093 15.1593 4.99559 15.0583C4.89817 14.9573 4.76707 14.8997 4.62985 14.8976H2.07353C1.937 14.9007 1.8069 14.9588 1.71033 15.0597C1.61376 15.1606 1.55817 15.2965 1.55515 15.4391V16.4849H0.518383C0.380899 16.4849 0.249062 16.542 0.151846 16.6435C0.0546303 16.7451 0 16.8828 0 17.0264C0 17.17 0.0546303 17.3078 0.151846 17.4093C0.249062 17.5109 0.380899 17.5679 0.518383 17.5679H1.55515V21.2882H0.518383C0.380899 21.2882 0.249062 21.3453 0.151846 21.4468C0.0546303 21.5484 0 21.6861 0 21.8297C0 21.9733 0.0546303 22.1111 0.151846 22.2126C0.249062 22.3142 0.380899 22.3712 0.518383 22.3712H1.55515V23.4542C1.55716 23.5976 1.61233 23.7345 1.709 23.8363C1.80567 23.9381 1.93633 23.9967 2.07353 23.9999H4.62985C4.76743 23.9967 4.89854 23.9382 4.99585 23.8366C5.09316 23.7349 5.14917 23.598 5.15219 23.4542V22.9127H18.8913V23.4542C18.8933 23.5976 18.9485 23.7345 19.0452 23.8363C19.1419 23.9381 19.2725 23.9967 19.4097 23.9999H21.966C22.1032 23.9967 22.2339 23.9381 22.3306 23.8363C22.4273 23.7345 22.4824 23.5976 22.4844 23.4542V22.3712H23.4816C23.6191 22.3712 23.751 22.3142 23.8482 22.2126C23.9454 22.1111 24 21.9733 24 21.8297C24 21.6861 23.9454 21.5484 23.8482 21.4468C23.751 21.3453 23.6191 21.2882 23.4816 21.2882V21.2799ZM6.66778 5.57206C6.67656 5.3649 6.75954 5.16875 6.90027 5.02251C7.041 4.87627 7.22919 4.79062 7.42754 4.78253H16.6279C16.8262 4.79062 17.0144 4.87627 17.1551 5.02251C17.2959 5.16875 17.3788 5.3649 17.3876 5.57206C17.3876 5.78255 17.3076 5.98442 17.1651 6.13326C17.0226 6.2821 16.8294 6.36571 16.6279 6.36571H7.42754C7.22875 6.36576 7.03786 6.28442 6.89582 6.13914C6.75379 5.99385 6.67192 5.79621 6.66778 5.5886V5.57206ZM10.7436 7.45286H13.2999V8.49455H10.7436V7.45286ZM8.71361 9.59411H15.3418V11.1814H8.71361V9.59411ZM4.11939 22.9045H2.6038V15.9806H4.11939V22.9045ZM5.15219 21.8214V17.0223H9.22407C9.36092 17.0201 9.49158 16.9624 9.58836 16.8613C9.68513 16.7602 9.74041 16.6237 9.74245 16.4808V12.2231H14.3367V16.4808C14.3387 16.6237 14.394 16.7602 14.4908 16.8613C14.5876 16.9624 14.7182 17.0201 14.8551 17.0223H18.9309V21.8214H5.15219ZM21.4476 22.9045H19.9281V15.9806H21.4476V22.9045Z" fill="white"/>
<path id="Vector_2" d="M12.7777 14.8937H11.2621C11.1319 14.9055 11.0107 14.9679 10.9224 15.0686C10.8341 15.1692 10.7852 15.3007 10.7852 15.4372C10.7852 15.5737 10.8341 15.7053 10.9224 15.8059C11.0107 15.9065 11.1319 15.969 11.2621 15.9808H12.7777C12.8498 15.9874 12.9225 15.9782 12.991 15.9539C13.0596 15.9296 13.1226 15.8906 13.176 15.8395C13.2294 15.7884 13.272 15.7262 13.3012 15.657C13.3303 15.5877 13.3454 15.5129 13.3454 15.4372C13.3454 15.3616 13.3303 15.2868 13.3012 15.2175C13.272 15.1483 13.2294 15.0861 13.176 15.035C13.1226 14.9839 13.0596 14.9449 12.991 14.9206C12.9225 14.8963 12.8498 14.8871 12.7777 14.8937Z" fill="white"/>
<path id="Vector_3" d="M12.7776 16.481H11.262C11.1246 16.481 10.9927 16.538 10.8955 16.6396C10.7983 16.7411 10.7437 16.8789 10.7437 17.0225C10.7437 17.1661 10.7983 17.3038 10.8955 17.4054C10.9927 17.5069 11.1246 17.564 11.262 17.564H12.7776C12.9151 17.564 13.0469 17.5069 13.1442 17.4054C13.2414 17.3038 13.296 17.1661 13.296 17.0225C13.296 16.8789 13.2414 16.7411 13.1442 16.6396C13.0469 16.538 12.9151 16.481 12.7776 16.481Z" fill="white"/>
<path id="Vector_4" d="M12.7777 18.1013H11.2621C11.1319 18.1132 11.0107 18.1756 10.9224 18.2762C10.8341 18.3769 10.7852 18.5084 10.7852 18.6449C10.7852 18.7814 10.8341 18.913 10.9224 19.0136C11.0107 19.1142 11.1319 19.1766 11.2621 19.1885H12.7777C12.9149 19.1864 13.046 19.1288 13.1434 19.0278C13.2408 18.9268 13.2969 18.7903 13.3 18.647C13.3022 18.5747 13.2902 18.5027 13.2647 18.4355C13.2392 18.3682 13.2008 18.3072 13.1519 18.2561C13.1029 18.2049 13.0445 18.1648 12.9801 18.1382C12.9157 18.1116 12.8468 18.099 12.7777 18.1013Z" fill="white"/>
<path id="Vector_5" d="M12.7776 19.6926H11.262C11.1246 19.6926 10.9927 19.7497 10.8955 19.8512C10.7983 19.9528 10.7437 20.0905 10.7437 20.2341C10.7437 20.3778 10.7983 20.5155 10.8955 20.617C10.9927 20.7186 11.1246 20.7756 11.262 20.7756H12.7776C12.9151 20.7756 13.0469 20.7186 13.1442 20.617C13.2414 20.5155 13.296 20.3778 13.296 20.2341C13.296 20.0905 13.2414 19.9528 13.1442 19.8512C13.0469 19.7497 12.9151 19.6926 12.7776 19.6926Z" fill="white"/>
<path id="Vector_6" d="M21.8867 5.00575L21.1269 4.25342L20.4463 5.00575L21.1269 5.75807L21.8867 5.00575Z" fill="white"/>
<path id="Vector_7" d="M23.9208 12.558L23.165 11.8057L22.4844 12.558L23.165 13.3103L23.9208 12.558Z" fill="white"/>
<path id="Vector_8" d="M6.07028 2.33559L5.35008 1.5874L4.62988 2.33559L5.35008 3.08792L6.07028 2.33559Z" fill="white"/>
<path id="Vector_9" d="M6.07028 12.0165L5.35008 11.2642L4.62988 12.0165L5.35008 12.7688L6.07028 12.0165Z" fill="white"/>
<path id="Vector_10" d="M3.11409 8.51123C3.21661 8.51123 3.31686 8.543 3.4021 8.6025C3.48735 8.662 3.55379 8.74657 3.59303 8.84551C3.63226 8.94446 3.64252 9.05335 3.62252 9.15839C3.60252 9.26343 3.55314 9.35992 3.48065 9.43565C3.40815 9.51138 3.31579 9.56296 3.21524 9.58385C3.11468 9.60475 3.01044 9.59402 2.91572 9.55303C2.821 9.51205 2.74005 9.44264 2.68309 9.35359C2.62613 9.26454 2.5957 9.15984 2.5957 9.05274C2.5957 8.90912 2.65033 8.77139 2.74755 8.66984C2.84477 8.56829 2.9766 8.51123 3.11409 8.51123Z" fill="white"/>
<path id="Vector_11" d="M17.8903 9.05264C17.8895 9.16091 17.9196 9.26697 17.9766 9.35733C18.0337 9.44769 18.1153 9.51827 18.2109 9.56008C18.3065 9.60189 18.4118 9.61304 18.5135 9.59212C18.6152 9.5712 18.7087 9.51915 18.782 9.44259C18.8552 9.36604 18.9051 9.26843 18.9251 9.1622C18.9451 9.05598 18.9344 8.94593 18.8944 8.84606C18.8544 8.74619 18.7868 8.66101 18.7003 8.60137C18.6138 8.54173 18.5123 8.51032 18.4087 8.51114C18.3401 8.50944 18.272 8.52229 18.2084 8.5489C18.1447 8.57552 18.0869 8.61533 18.0385 8.66596C17.99 8.71658 17.9519 8.77696 17.9264 8.84342C17.901 8.90989 17.8887 8.98107 17.8903 9.05264Z" fill="white"/>
<path id="Vector_12" d="M15.8363 1.08301C15.9388 1.08301 16.039 1.05126 16.1242 0.991756C16.2095 0.932254 16.2759 0.847677 16.3152 0.74873C16.3544 0.649782 16.3647 0.54091 16.3447 0.435867C16.3247 0.330825 16.2753 0.234336 16.2028 0.158604C16.1303 0.0828729 16.0379 0.0312986 15.9374 0.0104043C15.8368 -0.0104899 15.7326 0.000237053 15.6379 0.0412226C15.5431 0.0822081 15.4622 0.151614 15.4052 0.240664C15.3483 0.329715 15.3179 0.434404 15.3179 0.541505C15.3209 0.68413 15.3765 0.820047 15.4731 0.920923C15.5696 1.0218 15.6997 1.07985 15.8363 1.08301Z" fill="white"/>
</g>
</svg>
