<svg width="24" height="24" viewBox="0 0 24 24" fill="none" xmlns="http://www.w3.org/2000/svg">
<g id="39, Mechanical, Plumber, Plumbing, System">
<path id="Vector" d="M18.1356 14.5137L9.56952 5.9182C9.78411 5.04073 9.74545 4.12054 9.45801 3.26408C9.17057 2.40763 8.6461 1.6499 7.94527 1.07857C7.24444 0.50724 6.39588 0.145647 5.49777 0.0356244C4.59966 -0.0743985 3.6887 0.0716425 2.87027 0.456857C2.78657 0.497623 2.71355 0.557329 2.65703 0.631221C2.60051 0.705113 2.56205 0.791155 2.5447 0.882497C2.52735 0.973839 2.5316 1.06796 2.5571 1.15738C2.58261 1.24679 2.62868 1.32903 2.69163 1.39755L5.81794 4.51831L4.51829 5.7265L1.39197 2.60573C1.32294 2.54378 1.24052 2.49857 1.15112 2.47363C1.06172 2.4487 0.967754 2.4447 0.876553 2.46196C0.785352 2.47922 0.699372 2.51726 0.625317 2.57313C0.551263 2.629 0.491128 2.70119 0.449604 2.78406C0.068301 3.60275 -0.0747285 4.51196 0.0368437 5.40791C0.148416 6.30386 0.510105 7.15045 1.0806 7.85103C1.6511 8.55161 2.40743 9.07797 3.26325 9.37C4.11908 9.66204 5.03991 9.708 5.92065 9.50263L14.4868 18.0535C14.2777 18.9346 14.3208 19.8566 14.6112 20.7144C14.9016 21.5721 15.4275 22.3312 16.1291 22.9052C16.8306 23.4791 17.6796 23.8447 18.5792 23.9604C19.4788 24.0761 20.3929 23.9372 21.2173 23.5595C21.301 23.5187 21.374 23.459 21.4305 23.3851C21.487 23.3112 21.5255 23.2252 21.5428 23.1338C21.5602 23.0425 21.5559 22.9484 21.5304 22.8589C21.5049 22.7695 21.4589 22.6873 21.3959 22.6188L18.2696 19.498L19.5335 18.2497L22.6598 21.3705C22.7289 21.4324 22.8113 21.4776 22.9007 21.5026C22.9901 21.5275 23.0841 21.5315 23.1753 21.5142C23.2665 21.497 23.3524 21.4589 23.4265 21.4031C23.5005 21.3472 23.5607 21.275 23.6022 21.1921C25.1296 17.9644 22.0346 13.622 18.1356 14.5137ZM1.27138 4.08587L4.14313 6.94806C4.19583 7.0009 4.25846 7.04282 4.32744 7.07143C4.39642 7.10004 4.47039 7.11478 4.54508 7.11478C4.61978 7.11478 4.69374 7.10004 4.76272 7.07143C4.8317 7.04282 4.89433 7.0009 4.94703 6.94806L7.02827 4.87497C7.0812 4.82237 7.1232 4.75984 7.15186 4.69098C7.18052 4.62212 7.19528 4.5483 7.19528 4.47373C7.19528 4.39917 7.18052 4.32534 7.15186 4.25648C7.1232 4.18763 7.0812 4.1251 7.02827 4.07249L4.16098 1.20584C4.75667 1.08643 5.37294 1.11947 5.95238 1.30188C6.53183 1.48429 7.05559 1.81014 7.47488 2.24907C8.16352 2.93852 8.55022 3.8724 8.55022 4.84599C8.55022 5.81959 8.16352 6.75347 7.47488 7.44292C7.13649 7.78883 6.73118 8.06245 6.28357 8.24716C5.83596 8.43186 5.35542 8.52379 4.87112 8.51736C3.8707 8.51736 0.775632 6.36849 1.27138 4.08587ZM9.11843 7.10409L16.97 14.9417C16.1056 15.3539 15.4089 16.0494 14.9959 16.9122L7.14439 9.05235C7.97727 8.60711 8.66295 7.93037 9.11843 7.10409ZM22.8876 19.9527L20.0159 17.0906C19.9632 17.0377 19.9005 16.9958 19.8316 16.9672C19.7626 16.9386 19.6886 16.9238 19.6139 16.9238C19.5392 16.9238 19.4653 16.9386 19.3963 16.9672C19.3273 16.9958 19.2647 17.0377 19.212 17.0906L17.1486 19.1413C17.0957 19.194 17.0537 19.2565 17.025 19.3253C16.9963 19.3942 16.9816 19.468 16.9816 19.5426C16.9816 19.6171 16.9963 19.691 17.025 19.7598C17.0537 19.8287 17.0957 19.8912 17.1486 19.9438L20.0159 22.8551C19.3994 22.9804 18.761 22.9465 18.1614 22.7565C17.5617 22.5665 17.0206 22.2268 16.5893 21.7695C16.1581 21.3123 15.851 20.7526 15.6972 20.1436C15.5434 19.5346 15.548 18.8965 15.7105 18.2898C15.8048 18.1028 15.8811 17.9072 15.9383 17.7058C16.1464 17.2362 16.4537 16.8171 16.8391 16.477C17.2245 16.1369 17.679 15.8839 18.1714 15.7352C18.216 15.7352 18.2607 15.6907 18.3053 15.6907C18.9085 15.5264 19.5436 15.5182 20.1508 15.6669C20.758 15.8155 21.3173 16.1162 21.7758 16.5405C22.2344 16.9647 22.577 17.4986 22.7716 18.0917C22.9661 18.6848 23.006 19.3176 22.8876 19.9305V19.9527Z" fill="white"/>
<path id="Vector_2" d="M9.0292 8.9186C8.94481 8.99508 8.87737 9.08833 8.83122 9.19236C8.78507 9.2964 8.76123 9.40892 8.76123 9.5227C8.76123 9.63648 8.78507 9.749 8.83122 9.85303C8.87737 9.95707 8.94481 10.0503 9.0292 10.1268C9.10787 10.2075 9.20194 10.2717 9.30588 10.3156C9.40983 10.3594 9.52152 10.382 9.63436 10.382C9.7472 10.382 9.85889 10.3594 9.96283 10.3156C10.0668 10.2717 10.1609 10.2075 10.2395 10.1268C10.3252 10.0511 10.3937 9.95807 10.4407 9.85394C10.4877 9.7498 10.5119 9.6369 10.5119 9.5227C10.5119 9.4085 10.4877 9.2956 10.4407 9.19146C10.3937 9.08732 10.3252 8.99432 10.2395 8.9186C10.0652 8.78732 9.85274 8.71631 9.63436 8.71631C9.41598 8.71631 9.20354 8.78732 9.0292 8.9186ZM9.65893 9.81025C9.62341 9.8115 9.588 9.80543 9.55493 9.79243C9.52185 9.77943 9.49181 9.75977 9.46667 9.73468C9.44154 9.70959 9.42184 9.6796 9.40882 9.64658C9.39579 9.61356 9.38971 9.57822 9.39096 9.54276C9.39096 9.47182 9.41919 9.40378 9.46944 9.35361C9.51969 9.30345 9.58786 9.27527 9.65893 9.27527C9.73 9.27527 9.79816 9.30345 9.84841 9.35361C9.89867 9.40378 9.92689 9.47182 9.92689 9.54276C9.92689 9.5918 9.79292 9.81471 9.65893 9.81471V9.81025Z" fill="white"/>
<path id="Vector_3" d="M14.5003 13.4838C14.3279 13.4827 14.1592 13.5339 14.0165 13.6305C13.8737 13.727 13.7637 13.8645 13.7008 14.0248C13.6379 14.1851 13.6252 14.3606 13.6643 14.5283C13.7034 14.6959 13.7924 14.8478 13.9197 14.9639C13.9963 15.0482 14.0897 15.1155 14.194 15.1615C14.2982 15.2076 14.4109 15.2314 14.5249 15.2314C14.6389 15.2314 14.7516 15.2076 14.8558 15.1615C14.96 15.1155 15.0534 15.0482 15.1301 14.9639C15.4427 14.6474 15.264 13.4838 14.5003 13.4838ZM14.5003 14.6474C14.4447 14.6446 14.3909 14.6266 14.3448 14.5953C14.2987 14.564 14.2621 14.5207 14.2391 14.4701C14.216 14.4194 14.2074 14.3634 14.2141 14.3082C14.2208 14.253 14.2425 14.2007 14.277 14.157C14.3003 14.1256 14.3306 14.1002 14.3655 14.0826C14.4004 14.0651 14.4389 14.0559 14.478 14.0559C14.5171 14.0559 14.5556 14.0651 14.5905 14.0826C14.6254 14.1002 14.6557 14.1256 14.679 14.157C14.7728 14.2907 14.7236 14.6474 14.5003 14.6474Z" fill="white"/>
<path id="Vector_4" d="M18.5821 11.1165C18.9197 11.1165 19.2497 11.0166 19.5304 10.8292C19.811 10.6419 20.0297 10.3756 20.1587 10.0642C20.2877 9.75274 20.3212 9.41009 20.255 9.07961C20.1888 8.74913 20.0259 8.44568 19.7869 8.20768C19.5478 7.96969 19.2434 7.80784 18.9122 7.74263C18.5809 7.67742 18.2377 7.71179 17.9261 7.84137C17.6144 7.97095 17.3483 8.18993 17.1613 8.47058C16.9744 8.75123 16.8751 9.08094 16.876 9.41796C16.8772 9.86886 17.0574 10.3009 17.3773 10.6193C17.6971 10.9377 18.1304 11.1165 18.5821 11.1165ZM18.5821 8.83393C18.698 8.83304 18.8115 8.86654 18.9083 8.93018C19.0051 8.99381 19.0808 9.08472 19.1258 9.19135C19.1707 9.29799 19.183 9.41556 19.1609 9.52914C19.1388 9.64272 19.0835 9.7472 19.0018 9.82933C18.9202 9.91145 18.8159 9.96752 18.7023 9.99042C18.5887 10.0133 18.4708 10.002 18.3637 9.95794C18.2565 9.91387 18.1649 9.83902 18.1004 9.74288C18.0359 9.64675 18.0015 9.53366 18.0015 9.41796C17.9977 9.34045 18.0101 9.263 18.0378 9.1905C18.0656 9.118 18.1081 9.05203 18.1626 8.99674C18.2172 8.94145 18.2826 8.89804 18.3548 8.86925C18.427 8.84046 18.5044 8.82692 18.5821 8.82947V8.83393Z" fill="white"/>
<path id="Vector_5" d="M3.42397 17.9644C3.02452 17.9644 2.63405 18.0827 2.30198 18.3043C1.96991 18.5259 1.71117 18.8409 1.55851 19.2094C1.40585 19.5779 1.36614 19.9833 1.44439 20.3743C1.52265 20.7653 1.71535 21.1244 1.99812 21.406C2.28089 21.6877 2.64101 21.8792 3.0329 21.9565C3.42478 22.0337 3.83081 21.9932 4.1996 21.84C4.56839 21.6868 4.88337 21.4278 5.10465 21.0958C5.32593 20.7638 5.44357 20.3738 5.44269 19.9751C5.44388 19.7103 5.39243 19.448 5.29135 19.2032C5.19026 18.9584 5.04154 18.7361 4.85379 18.5491C4.66604 18.3621 4.443 18.2141 4.19757 18.1138C3.95214 18.0134 3.68919 17.9626 3.42397 17.9644ZM3.42397 20.8266C3.25526 20.8266 3.09034 20.7766 2.95006 20.6831C2.80978 20.5895 2.70045 20.4565 2.63588 20.3009C2.57132 20.1453 2.55442 19.9741 2.58733 19.8089C2.62025 19.6438 2.7015 19.492 2.82079 19.3729C2.94009 19.2539 3.09208 19.1728 3.25756 19.1399C3.42303 19.107 3.59455 19.1239 3.75042 19.1884C3.90629 19.2528 4.03952 19.362 4.13325 19.502C4.22698 19.642 4.27701 19.8067 4.27701 19.9751C4.27701 20.0869 4.25495 20.1976 4.21208 20.3009C4.16921 20.4042 4.10638 20.4981 4.02717 20.5772C3.94796 20.6563 3.85391 20.719 3.75042 20.7618C3.64692 20.8046 3.536 20.8266 3.42397 20.8266Z" fill="white"/>
<path id="Vector_6" d="M14.9538 1.36412L14.1294 2.18677L14.9535 3.0097L15.7779 2.18705L14.9538 1.36412Z" fill="white"/>
<path id="Vector_7" d="M4.03179 12.363L3.23926 13.1544L4.03207 13.9455L4.8246 13.1541L4.03179 12.363Z" fill="white"/>
<path id="Vector_8" d="M22.0347 5.96284C22.1508 5.96372 22.2645 5.93011 22.3614 5.86627C22.4583 5.80244 22.534 5.71127 22.5789 5.60438C22.6237 5.49748 22.6356 5.37969 22.6132 5.26598C22.5908 5.15228 22.535 5.0478 22.4529 4.96586C22.3708 4.88391 22.2661 4.8282 22.1522 4.80581C22.0383 4.78341 21.9203 4.79535 21.8132 4.84011C21.7061 4.88486 21.6148 4.96041 21.5509 5.05713C21.4869 5.15386 21.4532 5.26739 21.4541 5.38327C21.4575 5.53591 21.5198 5.68136 21.628 5.78932C21.7361 5.89728 21.8818 5.95944 22.0347 5.96284Z" fill="white"/>
<path id="Vector_9" d="M11.7224 19.663C11.6065 19.6621 11.4929 19.6956 11.3961 19.7592C11.2993 19.8229 11.2236 19.9138 11.1786 20.0204C11.1337 20.127 11.1214 20.2446 11.1435 20.3582C11.1656 20.4718 11.221 20.5763 11.3026 20.6584C11.3842 20.7405 11.4885 20.7966 11.6021 20.8195C11.7157 20.8424 11.8336 20.8311 11.9407 20.787C12.0479 20.7429 12.1395 20.6681 12.204 20.5719C12.2685 20.4758 12.3029 20.3627 12.3029 20.247C12.3007 20.0936 12.2389 19.947 12.1306 19.8381C12.0224 19.7292 11.876 19.6664 11.7224 19.663Z" fill="white"/>
</g>
</svg>
