<svg width="24" height="24" viewBox="0 0 24 24" fill="none" xmlns="http://www.w3.org/2000/svg">
<g id="8, Leak, Mechanical, Plumber, Plumbing">
<path id="Vector" d="M23.4908 15.1544H21.9981V11.5042H23.4908C23.6258 11.5042 23.7553 11.4482 23.8508 11.3486C23.9463 11.2489 24 11.1138 24 10.9729C24 10.832 23.9463 10.6968 23.8508 10.5972C23.7553 10.4975 23.6258 10.4416 23.4908 10.4416H21.9981V9.3749C21.9961 9.23465 21.9418 9.10072 21.8467 9.00153C21.7516 8.90234 21.6233 8.84569 21.4888 8.8436H19.4869C19.3528 8.8467 19.225 8.90367 19.1301 9.00265C19.0352 9.10162 18.9806 9.23497 18.9776 9.3749V9.90621H15.6812L15.4869 9.70342V7.3308H15.9961C16.1309 7.32767 16.2593 7.27013 16.3542 7.17029C16.4492 7.07045 16.5034 6.93608 16.5053 6.79544V4.71077C16.5034 4.57013 16.4492 4.43576 16.3542 4.33592C16.2593 4.23608 16.1309 4.17855 15.9961 4.17542H13.9942V3.1128H15.9961C16.1983 3.12357 16.4005 3.09133 16.5903 3.01803C16.7802 2.94473 16.9537 2.83191 17.1005 2.68642C17.2472 2.54093 17.3641 2.36581 17.4439 2.17172C17.5238 1.97764 17.565 1.76863 17.565 1.55742C17.565 1.3462 17.5238 1.1372 17.4439 0.943111C17.3641 0.749023 17.2472 0.573907 17.1005 0.428417C16.9537 0.282926 16.7802 0.170101 16.5903 0.0968002C16.4005 0.0234993 16.1983 -0.00874704 15.9961 0.00202785H8.50146C8.11925 0.0223978 7.75914 0.195157 7.49551 0.484616C7.23189 0.774074 7.0849 1.15812 7.0849 1.55742C7.0849 1.95671 7.23189 2.34076 7.49551 2.63022C7.75914 2.91968 8.11925 3.09243 8.50146 3.1128H10.5034V4.17542H8.50146C8.36668 4.17855 8.23831 4.23608 8.14334 4.33592C8.04837 4.43576 7.99421 4.57013 7.99223 4.71077V6.80355C7.99421 6.9442 8.04837 7.07856 8.14334 7.1784C8.23831 7.27824 8.36668 7.33578 8.50146 7.33891H9.02235V9.71153L8.82799 9.91432H5.02236V9.38302C5.01939 9.24308 4.96478 9.10974 4.86992 9.01076C4.77505 8.91179 4.64724 8.85481 4.51312 8.85171H2.51118C2.37675 8.85381 2.24839 8.91046 2.15332 9.00965C2.05825 9.10884 2.00395 9.24276 2.00195 9.38302V10.4091H0.509237C0.37418 10.4091 0.244653 10.4651 0.149154 10.5647C0.053654 10.6644 0 10.7995 0 10.9404C0 11.0813 0.053654 11.2165 0.149154 11.3161C0.244653 11.4158 0.37418 11.4717 0.509237 11.4717H2.00195V15.1219H0.509237C0.38136 15.1336 0.262309 15.1948 0.175578 15.2935C0.0888477 15.3923 0.0407316 15.5213 0.0407316 15.6553C0.0407316 15.7892 0.0888477 15.9183 0.175578 16.017C0.262309 16.1157 0.38136 16.1769 0.509237 16.1886H2.00195V17.2106C2.00395 17.3509 2.05825 17.4848 2.15332 17.584C2.24839 17.6832 2.37675 17.7399 2.51118 17.742H4.51312C4.64755 17.7399 4.77592 17.6832 4.87098 17.584C4.96605 17.4848 5.02035 17.3509 5.02236 17.2106V16.6793H8.82799C9.50539 17.4307 10.3872 17.9473 11.3547 18.1597H11.4325C11.5004 18.1594 11.5677 18.1456 11.6307 18.1191C11.7862 18.038 11.7473 18.038 12.6103 16.9308C12.6613 16.8622 12.6951 16.7814 12.7086 16.6957C12.7222 16.61 12.7151 16.5222 12.688 16.4401L12.4159 15.5397L13.3178 16.3184L12.9291 17.3404C12.8927 17.4297 12.8812 17.5278 12.896 17.6236C12.9107 17.7193 12.9511 17.8088 13.0124 17.8817C13.0737 17.9546 13.1535 18.0079 13.2426 18.0356C13.3317 18.0632 13.4265 18.0641 13.516 18.038C14.3323 17.7837 15.0742 17.3192 15.6735 16.6875H18.9699V17.2188C18.9719 17.359 19.0262 17.4929 19.1212 17.5921C19.2163 17.6913 19.3447 17.748 19.4791 17.7501H21.4811C21.6155 17.748 21.7438 17.6913 21.8389 17.5921C21.934 17.4929 21.9883 17.359 21.9903 17.2188V16.1967H23.483C23.6174 16.1946 23.7458 16.138 23.8409 16.0388C23.9359 15.9396 23.9902 15.8057 23.9922 15.6654C23.9928 15.5971 23.9801 15.5294 23.955 15.4663C23.9298 15.4033 23.8927 15.3461 23.8459 15.2984C23.799 15.2507 23.7434 15.2133 23.6824 15.1886C23.6214 15.1638 23.5562 15.1522 23.4908 15.1544ZM7.99223 1.5635C7.9952 1.42356 8.0498 1.29022 8.14466 1.19124C8.23953 1.09227 8.36734 1.0353 8.50146 1.0322H15.9961C16.124 1.04384 16.243 1.10507 16.3298 1.20381C16.4165 1.30254 16.4646 1.4316 16.4646 1.56553C16.4646 1.69946 16.4165 1.82852 16.3298 1.92725C16.243 2.02599 16.124 2.08721 15.9961 2.09886H8.50146C8.36668 2.09572 8.23831 2.03819 8.14334 1.93835C8.04837 1.83851 7.99421 1.70415 7.99223 1.5635ZM11.4908 3.12091H12.9835V4.18352H11.4908V3.12091ZM8.97959 5.20964H15.4947V6.27225H8.97182V5.20964H8.97959ZM10.0019 7.2943H14.5151V8.91661C13.8197 8.53304 13.0451 8.33254 12.2585 8.33254C11.4719 8.33254 10.6973 8.53304 10.0019 8.91661V7.2943ZM3.99612 16.7118H2.97765V9.91432H3.99612V16.7118ZM15.4947 15.6492C15.4199 15.6531 15.3468 15.6731 15.2799 15.708C15.213 15.7429 15.1537 15.7919 15.1059 15.852C14.8756 16.1291 14.6146 16.3769 14.3285 16.5901L14.4062 16.3833C14.4413 16.283 14.4452 16.1737 14.4172 16.0711C14.3893 15.9684 14.331 15.8775 14.2507 15.8114L11.8173 13.7227C11.7373 13.6532 11.6381 13.6124 11.5342 13.6061C11.4303 13.5999 11.3272 13.6287 11.2401 13.6882C11.1531 13.7477 11.0866 13.8348 11.0506 13.9366C11.0145 14.0385 11.0108 14.1497 11.0398 14.254L11.7085 16.5496L11.277 17.1214C10.5622 16.9095 9.92106 16.4871 9.43052 15.9047C9.38547 15.8415 9.32682 15.7902 9.2593 15.755C9.19178 15.7198 9.11728 15.7016 9.04179 15.7019H5.01069V14.6758H6.49951C6.63457 14.6758 6.7641 14.6198 6.8596 14.5202C6.9551 14.4205 7.00875 14.2854 7.00875 14.1445C7.00875 14.0036 6.9551 13.8684 6.8596 13.7688C6.7641 13.6692 6.63457 13.6132 6.49951 13.6132H5.01069V10.981H9.02235C9.09747 10.9771 9.17095 10.9567 9.23795 10.921C9.30495 10.8854 9.36396 10.8353 9.41108 10.7741C9.76433 10.3413 10.2035 9.9937 10.6981 9.75532C11.1928 9.51693 11.7311 9.39348 12.276 9.39348C12.8209 9.39348 13.3592 9.51693 13.8539 9.75532C14.3485 9.9937 14.7877 10.3413 15.1409 10.7741C15.1853 10.8383 15.2437 10.8906 15.3113 10.9265C15.3789 10.9625 15.4538 10.9812 15.5296 10.981H19.0593V12.003H17.5044C17.4335 11.9966 17.3621 12.0056 17.2947 12.0295C17.2274 12.0533 17.1655 12.0915 17.1131 12.1417C17.0606 12.1919 17.0187 12.2528 16.9901 12.3208C16.9614 12.3887 16.9466 12.4621 16.9466 12.5364C16.9466 12.6106 16.9614 12.684 16.9901 12.752C17.0187 12.8199 17.0606 12.8809 17.1131 12.9311C17.1655 12.9812 17.2274 13.0194 17.2947 13.0433C17.3621 13.0672 17.4335 13.0762 17.5044 13.0697H18.9932V15.6897L15.4947 15.6492ZM21.0262 16.7118H20.0466V9.91432H21.0262V16.7118Z" fill="white"/>
<path id="Vector_2" d="M4.68438 2.63618L3.9917 3.35889L4.68438 4.08159L5.37705 3.35889L4.68438 2.63618Z" fill="white"/>
<path id="Vector_3" d="M20.9018 1.77037L20.1943 1.03223L19.4868 1.77037L20.1943 2.50853L20.9018 1.77037Z" fill="white"/>
<path id="Vector_4" d="M5.17315 20.9781L4.48047 21.7008L5.17315 22.4235L5.86582 21.7008L5.17315 20.9781Z" fill="white"/>
<path id="Vector_5" d="M3.83261 7.1726C3.92591 7.07472 3.97813 6.94217 3.97776 6.80412C3.9774 6.66607 3.92449 6.53382 3.83067 6.43648C3.73685 6.33913 3.60981 6.28466 3.4775 6.28504C3.34518 6.28542 3.21843 6.34062 3.12513 6.43851C3.03183 6.53639 2.97962 6.66893 2.97998 6.80698C2.98035 6.94503 3.03326 7.07728 3.12708 7.17462C3.2209 7.27197 3.34793 7.32645 3.48025 7.32607C3.61256 7.32569 3.73931 7.27048 3.83261 7.1726Z" fill="white"/>
<path id="Vector_6" d="M6.6199 19.4535C6.5503 19.5261 6.5029 19.6186 6.48369 19.7193C6.46448 19.82 6.47433 19.9244 6.51198 20.0193C6.54964 20.1142 6.61342 20.1952 6.69524 20.2523C6.77707 20.3093 6.87328 20.3398 6.97169 20.3398C7.07011 20.3398 7.16631 20.3093 7.24814 20.2523C7.32996 20.1952 7.39374 20.1142 7.4314 20.0193C7.46905 19.9244 7.4789 19.82 7.4597 19.7193C7.44049 19.6186 7.39309 19.5261 7.32349 19.4535C7.27755 19.4048 7.22279 19.3662 7.16239 19.3398C7.10199 19.3134 7.03717 19.2998 6.97169 19.2998C6.90621 19.2998 6.84139 19.3134 6.78099 19.3398C6.72059 19.3662 6.66583 19.4048 6.6199 19.4535Z" fill="white"/>
<path id="Vector_7" d="M19.0166 19.8225C19.1184 19.8217 19.2181 19.8525 19.3031 19.9111C19.3881 19.9696 19.4544 20.0531 19.4938 20.1511C19.5331 20.2491 19.5436 20.3571 19.5239 20.4613C19.5042 20.5655 19.4553 20.6613 19.3833 20.7364C19.3113 20.8115 19.2195 20.8626 19.1196 20.8831C19.0197 20.9037 18.9162 20.8927 18.8223 20.8517C18.7284 20.8107 18.6483 20.7414 18.5922 20.6528C18.5361 20.5641 18.5066 20.4601 18.5073 20.3538C18.5073 20.2129 18.561 20.0778 18.6565 19.9781C18.752 19.8785 18.8815 19.8225 19.0166 19.8225Z" fill="white"/>
<path id="Vector_8" d="M19.3701 6.11004C19.4173 6.06205 19.4549 6.00466 19.4805 5.94127C19.5062 5.87788 19.5194 5.80978 19.5194 5.74097C19.5194 5.67217 19.5062 5.60405 19.4805 5.54066C19.4549 5.47727 19.4173 5.41989 19.3701 5.37189C19.3 5.29848 19.2107 5.2484 19.1134 5.22801C19.016 5.20762 18.9151 5.21784 18.8233 5.25736C18.7315 5.29689 18.6531 5.36395 18.5979 5.45004C18.5427 5.53613 18.5132 5.63739 18.5132 5.74097C18.5132 5.84455 18.5427 5.9458 18.5979 6.0319C18.6531 6.11799 18.7315 6.18505 18.8233 6.22457C18.9151 6.2641 19.016 6.27431 19.1134 6.25393C19.2107 6.23354 19.3 6.18346 19.3701 6.11004Z" fill="white"/>
<path id="Vector_9" d="M15.6306 12.1693C15.5616 12.2421 15.5147 12.3346 15.496 12.4352C15.4772 12.5357 15.4874 12.6398 15.5252 12.7344C15.563 12.8289 15.6268 12.9096 15.7085 12.9664C15.7902 13.0232 15.8862 13.0535 15.9844 13.0535C16.0826 13.0535 16.1786 13.0232 16.2603 12.9664C16.342 12.9096 16.4057 12.8289 16.4436 12.7344C16.4814 12.6398 16.4915 12.5357 16.4728 12.4352C16.454 12.3346 16.4072 12.2421 16.3381 12.1693C16.2919 12.1205 16.2368 12.0818 16.176 12.0553C16.1153 12.0289 16.0502 12.0153 15.9844 12.0153C15.9186 12.0153 15.8534 12.0289 15.7927 12.0553C15.732 12.0818 15.6769 12.1205 15.6306 12.1693Z" fill="white"/>
<path id="Vector_10" d="M22.3518 7.17264C22.4214 7.10004 22.4688 7.00754 22.488 6.90683C22.5072 6.80613 22.4974 6.70174 22.4597 6.60687C22.4221 6.51201 22.3583 6.43093 22.2765 6.37388C22.1946 6.31683 22.0984 6.28638 22 6.28638C21.9016 6.28638 21.8054 6.31683 21.7236 6.37388C21.6417 6.43093 21.578 6.51201 21.5403 6.60687C21.5027 6.70174 21.4928 6.80613 21.512 6.90683C21.5312 7.00754 21.5786 7.10004 21.6482 7.17264C21.6939 7.22182 21.7486 7.26093 21.809 7.28764C21.8694 7.31434 21.9344 7.32811 22 7.32811C22.0656 7.32811 22.1306 7.31434 22.191 7.28764C22.2515 7.26093 22.3061 7.22182 22.3518 7.17264Z" fill="white"/>
<path id="Vector_11" d="M16.1127 19.9848C16.0713 19.9048 16.0085 19.8391 15.9318 19.7959C15.8551 19.7526 15.768 19.7337 15.6812 19.7414C15.5961 19.7442 15.5128 19.7677 15.4379 19.8099C15.363 19.8522 15.2986 19.912 15.2497 19.9848C14.861 20.6418 13.9941 21.38 13.9941 22.2398C13.9941 22.7066 14.1719 23.1543 14.4883 23.4844C14.8047 23.8145 15.2338 24 15.6812 24C16.1287 24 16.5578 23.8145 16.8742 23.4844C17.1905 23.1543 17.3683 22.7066 17.3683 22.2398C17.3683 21.38 16.5053 20.6418 16.1127 19.9848ZM15.6812 22.9739C15.5887 22.9744 15.497 22.9558 15.4114 22.9191C15.3258 22.8824 15.248 22.8284 15.1826 22.7601C15.1171 22.6918 15.0653 22.6107 15.0301 22.5214C14.995 22.432 14.9771 22.3363 14.9776 22.2398C14.9776 21.9518 15.448 21.38 15.6812 21.1326C15.9183 21.4205 16.3887 21.9437 16.3887 22.2398C16.3887 22.3365 16.3704 22.4323 16.3348 22.5217C16.2992 22.611 16.247 22.6921 16.1813 22.7603C16.1155 22.8285 16.0375 22.8825 15.9517 22.9192C15.8659 22.9558 15.7739 22.9744 15.6812 22.9739Z" fill="white"/>
<path id="Vector_12" d="M12.6996 18.9709C12.6582 18.8908 12.5953 18.8252 12.5187 18.7819C12.442 18.7387 12.3549 18.7198 12.2681 18.7275C12.1829 18.73 12.0995 18.7533 12.0246 18.7956C11.9496 18.8379 11.8853 18.8979 11.8366 18.9709C11.5645 19.4211 10.9736 19.9118 10.9736 20.5932C10.9736 20.9514 11.11 21.2949 11.3528 21.5482C11.5955 21.8015 11.9248 21.9437 12.2681 21.9437C12.6114 21.9437 12.9407 21.8015 13.1834 21.5482C13.4262 21.2949 13.5625 20.9514 13.5625 20.5932C13.5039 20.1302 13.297 19.7014 12.9756 19.3764C12.8927 19.2347 12.8005 19.0992 12.6996 18.9709ZM12.3109 20.8974C12.2697 20.8974 12.2289 20.8888 12.1909 20.8723C12.153 20.8557 12.1185 20.8315 12.0896 20.8009C12.0606 20.7703 12.0378 20.7341 12.0224 20.6943C12.007 20.6544 11.9994 20.6118 11.9999 20.5688C12.0643 20.3816 12.171 20.2133 12.3109 20.0781C12.4396 20.2237 12.5458 20.3892 12.6257 20.5688C12.583 20.723 12.4663 20.8892 12.307 20.8892L12.3109 20.8974Z" fill="white"/>
</g>
</svg>
