<svg width="24" height="24" viewBox="0 0 24 24" fill="none" xmlns="http://www.w3.org/2000/svg">
<g id="34, Gauge, Mechanical, Plumber, Plumbing">
<path id="Vector" d="M23.5431 15.1089H19.9006V14.5487C19.8985 14.4004 19.8421 14.2587 19.7432 14.1534C19.6444 14.0482 19.5107 13.9875 19.3704 13.9842H17.7757V13.424C17.7737 13.2761 17.7171 13.1348 17.6181 13.0303C17.5192 12.9257 17.3855 12.8659 17.2456 12.8637H14.1008V11.4396C14.9664 11.1139 15.7407 10.5634 16.3523 9.83876C16.9639 9.11411 17.3932 8.23859 17.6008 7.29273C17.8083 6.34687 17.7875 5.36104 17.5401 4.42593C17.2927 3.49083 16.8268 2.63645 16.1851 1.94142L16.1042 1.85589C15.0847 0.797582 13.7127 0.20459 12.2836 0.20459C10.8544 0.20459 9.48239 0.797582 8.46291 1.85589L8.38196 1.94142C7.74237 2.63742 7.27825 3.49185 7.0321 4.42647C6.78596 5.36109 6.76565 6.34603 6.97304 7.29109C7.18043 8.23614 7.60887 9.11112 8.21917 9.8359C8.82947 10.5607 9.60212 11.1121 10.4663 11.4396V12.8637H7.32157C7.18122 12.8659 7.04713 12.9255 6.9475 13.03C6.84787 13.1345 6.79045 13.2757 6.78732 13.424V13.9842H4.70701C4.56629 13.9875 4.43219 14.048 4.33266 14.1531C4.23314 14.2583 4.17586 14.4 4.17276 14.5487V15.1089H0.530195C0.390229 15.1111 0.256585 15.1709 0.157603 15.2755C0.0586218 15.38 0.00208939 15.5213 0 15.6691V21.1945C0.00208939 21.3424 0.0586218 21.4836 0.157603 21.5882C0.256585 21.6927 0.390229 21.7525 0.530195 21.7547H4.17276V22.3149C4.17586 22.4636 4.23314 22.6053 4.33266 22.7105C4.43219 22.8156 4.56629 22.8761 4.70701 22.8794H6.78732V23.4396C6.79045 23.5879 6.84787 23.7292 6.9475 23.8336C7.04713 23.9381 7.18122 23.9977 7.32157 23.9999H17.2051C17.345 23.9977 17.4787 23.9379 17.5777 23.8333C17.6766 23.7288 17.7332 23.5875 17.7353 23.4396V22.8794H19.2894C19.4298 22.8761 19.5634 22.8154 19.6623 22.7102C19.7612 22.6049 19.8176 22.4632 19.8196 22.3149V21.7547H23.4622C23.6011 21.7503 23.7332 21.6898 23.8311 21.5855C23.929 21.4813 23.9853 21.3413 23.9883 21.1945V15.6349C24.004 15.5674 24.0039 15.4969 23.988 15.4295C23.972 15.3621 23.9408 15.2997 23.897 15.2479C23.8531 15.1961 23.798 15.1564 23.7363 15.1322C23.6747 15.108 23.6084 15.1 23.5431 15.1089ZM12.838 10.6741V9.59645C12.838 9.44787 12.7822 9.30537 12.6827 9.2003C12.5833 9.09524 12.4485 9.03623 12.3078 9.03623C12.1672 9.03623 12.0324 9.09524 11.9329 9.2003C11.8335 9.30537 11.7776 9.44787 11.7776 9.59645V10.6741C10.9632 10.5915 10.1928 10.2449 9.57187 9.68198L10.3044 8.90364C10.3537 8.85309 10.3929 8.7927 10.4199 8.72598C10.4469 8.65925 10.461 8.58751 10.4615 8.51496C10.462 8.4424 10.4489 8.37047 10.4229 8.30333C10.3968 8.2362 10.3584 8.1752 10.3098 8.1239C10.2613 8.07259 10.2035 8.03199 10.14 8.00447C10.0765 7.97694 10.0084 7.96305 9.93972 7.96358C9.87105 7.96411 9.80317 7.97906 9.74002 8.00756C9.67687 8.03606 9.61971 8.07753 9.57187 8.12959L8.83526 8.94641C8.33454 8.26977 8.01075 7.46607 7.89628 6.6157H8.91621C9.05682 6.6157 9.19169 6.55667 9.29112 6.45161C9.39055 6.34654 9.4464 6.20405 9.4464 6.05547C9.4464 5.90689 9.39055 5.76438 9.29112 5.65932C9.19169 5.55426 9.05682 5.49524 8.91621 5.49524H7.89628C7.97452 4.63466 8.30247 3.82064 8.83526 3.16452L9.57187 3.94285C9.66955 4.0455 9.80181 4.10293 9.93957 4.10253C10.0773 4.10213 10.2093 4.04393 10.3065 3.94071C10.4036 3.8375 10.458 3.69774 10.4576 3.55217C10.4572 3.40661 10.4021 3.26716 10.3044 3.16452L9.57187 2.38618C10.2122 1.8571 10.9729 1.51497 11.7776 1.39402V2.47172C11.7776 2.6203 11.8335 2.76279 11.9329 2.86785C12.0324 2.97292 12.1672 3.03194 12.3078 3.03194C12.4485 3.03194 12.5833 2.97292 12.6827 2.86785C12.7822 2.76279 12.838 2.6203 12.838 2.47172V1.39402C13.6478 1.49585 14.4131 1.84009 15.0438 2.38618L14.3113 3.16452C14.2629 3.21534 14.2245 3.27573 14.1982 3.34225C14.1719 3.40876 14.1583 3.48009 14.1581 3.55217C14.1579 3.62425 14.1712 3.69565 14.1971 3.76232C14.223 3.82898 14.2611 3.88961 14.3092 3.94071C14.3573 3.99182 14.4145 4.03241 14.4774 4.06018C14.5404 4.08795 14.6079 4.10233 14.6761 4.10253C14.7443 4.10273 14.8119 4.08873 14.875 4.06133C14.9381 4.03393 14.9955 3.99368 15.0438 3.94285L15.7804 3.16452C16.2811 3.84116 16.6049 4.64487 16.7194 5.49524H15.6995C15.5589 5.49524 15.424 5.55426 15.3246 5.65932C15.2251 5.76438 15.1693 5.90689 15.1693 6.05547C15.1693 6.20405 15.2251 6.34654 15.3246 6.45161C15.424 6.55667 15.5589 6.6157 15.6995 6.6157H16.7032C16.625 7.47627 16.297 8.29029 15.7642 8.94641L15.0276 8.17235C14.9798 8.1203 14.9226 8.07883 14.8595 8.05033C14.7963 8.02183 14.7284 8.00688 14.6598 8.00635C14.5911 8.00582 14.523 8.01971 14.4595 8.04723C14.3959 8.07476 14.3382 8.11536 14.2897 8.16666C14.2411 8.21797 14.2027 8.27897 14.1767 8.3461C14.1506 8.41324 14.1374 8.48517 14.1379 8.55772C14.1384 8.63028 14.1526 8.70201 14.1796 8.76873C14.2065 8.83546 14.2458 8.89586 14.2951 8.94641L15.0276 9.72474C14.4021 10.262 13.6404 10.5922 12.838 10.6741ZM11.5307 11.7561C12.0456 11.8417 12.57 11.8417 13.0849 11.7561V12.9193H11.5307V11.7433V11.7561ZM1.11301 20.6043V16.1994H4.2173V20.6043H1.11301ZM18.8442 21.7247H17.2901C17.1504 21.728 17.0174 21.7881 16.9186 21.8925C16.8198 21.9968 16.763 22.1374 16.7599 22.285V22.8495H7.89628V17.8716C7.88466 17.7309 7.82357 17.5999 7.72504 17.5045C7.62651 17.4091 7.49771 17.3562 7.36406 17.3562C7.23041 17.3562 7.10163 17.4091 7.0031 17.5045C6.90458 17.5999 6.84346 17.7309 6.83184 17.8716V21.7205H5.28174V15.1089H7.36609C7.50573 15.1057 7.6388 15.0456 7.73756 14.9412C7.83633 14.8369 7.89319 14.6962 7.89628 14.5487V13.9842H16.7599V18.9493C16.7599 19.0978 16.8157 19.2403 16.9152 19.3454C17.0146 19.4505 17.1494 19.5095 17.2901 19.5095C17.4307 19.5095 17.5655 19.4505 17.665 19.3454C17.7644 19.2403 17.8203 19.0978 17.8203 18.9493V15.1004H18.8442V21.7034V21.7247ZM23.0089 20.6043H19.8641V16.1994H23.0089V20.6043Z" fill="white"/>
<path id="Vector_2" d="M12.7574 4.79409L11.8468 5.74348C11.7417 5.73571 11.6362 5.75121 11.5371 5.78899C11.438 5.82677 11.3474 5.88601 11.2712 5.9629C11.195 6.03978 11.1349 6.13263 11.0946 6.2355C11.0543 6.33838 11.0348 6.44901 11.0373 6.5603C11.0373 6.77807 11.1192 6.98692 11.2649 7.1409C11.4107 7.29489 11.6083 7.3814 11.8144 7.3814C11.9199 7.384 12.0248 7.36338 12.1223 7.32086C12.2199 7.27835 12.308 7.21485 12.3811 7.13442C12.4541 7.05398 12.5106 6.95837 12.5468 6.85364C12.583 6.74891 12.5983 6.63736 12.5915 6.52609L13.49 5.61946C13.5871 5.5168 13.6417 5.37759 13.6417 5.23243C13.6417 5.08727 13.5871 4.94806 13.49 4.8454C13.448 4.78673 13.3945 4.73828 13.3332 4.70336C13.2719 4.66843 13.2043 4.64784 13.1348 4.64297C13.0653 4.6381 12.9957 4.64908 12.9305 4.67515C12.8654 4.70123 12.8064 4.74179 12.7574 4.79409Z" fill="white"/>
<path id="Vector_3" d="M7.07852 0.778322L6.34193 0L5.60938 0.778322L6.34193 1.55666L7.07852 0.778322Z" fill="white"/>
<path id="Vector_4" d="M20.8437 10.3621L20.1111 9.58374L19.3745 10.3621L20.1111 11.1361L20.8437 10.3621Z" fill="white"/>
<path id="Vector_5" d="M5.58739 9.71209L4.86621 10.4741L5.58741 11.2362L6.30859 10.4741L5.58739 9.71209Z" fill="white"/>
<path id="Vector_6" d="M3.07597 5.05061C3.14923 4.97356 3.19919 4.87526 3.21954 4.76817C3.23989 4.66109 3.22969 4.55003 3.19024 4.44908C3.1508 4.34812 3.08389 4.2618 2.99798 4.20107C2.91207 4.14033 2.81102 4.10791 2.70765 4.10791C2.60428 4.10791 2.50326 4.14033 2.41734 4.20107C2.33143 4.2618 2.2645 4.34812 2.22506 4.44908C2.18561 4.55003 2.17541 4.66109 2.19576 4.76817C2.21611 4.87526 2.26609 4.97356 2.33936 5.05061C2.38725 5.1026 2.44452 5.14391 2.50778 5.17213C2.57104 5.20034 2.63899 5.21487 2.70765 5.21487C2.77631 5.21487 2.84429 5.20034 2.90754 5.17213C2.9708 5.14391 3.02807 5.1026 3.07597 5.05061Z" fill="white"/>
<path id="Vector_7" d="M18.6783 2.28803C18.7507 2.21148 18.8001 2.11394 18.8201 2.00775C18.8401 1.90156 18.8298 1.79149 18.7906 1.69146C18.7514 1.59143 18.685 1.50593 18.5998 1.44577C18.5146 1.38562 18.4145 1.35352 18.312 1.35352C18.2095 1.35352 18.1094 1.38562 18.0242 1.44577C17.939 1.50593 17.8726 1.59143 17.8334 1.69146C17.7942 1.79149 17.7839 1.90156 17.8039 2.00775C17.8239 2.11394 17.8733 2.21148 17.9457 2.28803C17.9936 2.33937 18.0506 2.38013 18.1135 2.40796C18.1763 2.43578 18.2438 2.45011 18.312 2.45011C18.3802 2.45011 18.4477 2.43578 18.5106 2.40796C18.5734 2.38013 18.6305 2.33937 18.6783 2.28803Z" fill="white"/>
<path id="Vector_8" d="M22.8473 5.56811C22.9192 5.49132 22.968 5.39377 22.9875 5.28774C23.007 5.18172 22.9964 5.07197 22.9571 4.97229C22.9177 4.87261 22.8513 4.78747 22.7662 4.72758C22.6811 4.6677 22.5812 4.63574 22.479 4.63574C22.3768 4.63574 22.2768 4.6677 22.1918 4.72758C22.1067 4.78747 22.0403 4.87261 22.0009 4.97229C21.9615 5.07197 21.951 5.18172 21.9705 5.28774C21.99 5.39377 22.0388 5.49132 22.1107 5.56811C22.1589 5.61957 22.2162 5.66042 22.2794 5.68831C22.3427 5.71619 22.4105 5.73054 22.479 5.73054C22.5475 5.73054 22.6153 5.71619 22.6785 5.68831C22.7418 5.66042 22.7991 5.61957 22.8473 5.56811Z" fill="white"/>
</g>
</svg>
